<?xml version="1.0" encoding="utf-8"?>
<!-- Generator: Adobe Illustrator 19.2.1, SVG Export Plug-In . SVG Version: 6.00 Build 0)  -->
<svg version="1.1" id="layer" xmlns="http://www.w3.org/2000/svg" xmlns:xlink="http://www.w3.org/1999/xlink" x="0px" y="0px"
	 viewBox="0 0 652 652" style="enable-background:new 0 0 652 652;" xml:space="preserve">
<path d="M85.6,488c9.4-1.3,11.4-5.3,11.4-15.3V434c0-5-2.9-9.2-11.4-9.5v-2.7h29.1l18.6,49.3h0.7l17.4-49.3h27v2.7
	c-8.1,0.3-9.8,1.7-9.8,5.2v53.1c0,3.6,1.7,4.9,9.8,5.2v2.7h-34V488c6.7-0.3,9-1.4,9-5.2v-52.7h-0.6l-22,60.6h-5.3l-23.9-60.6h-0.7
	v42.7c0,9.9,1.9,13.9,11.7,15.3v2.7h-27L85.6,488L85.6,488z M183.6,488c8.3-0.3,10-1.6,10-5.2v-53.1c0-3.5-1.7-4.9-10-5.2v-2.7H219
	v2.7c-8.3,0.3-10,1.7-10,5.2v53.1c0,3.6,1.7,4.9,10,5.2v2.7h-35.4V488z M239.2,436.7h-0.3v36.1c0,9.9,2.2,14.2,12.4,15.3v2.7h-27.7
	V488c9.4-1.3,11.4-5.3,11.4-15.3v-37.8c0-5.6-2.9-9.9-11.4-10.4v-2.7h23.3l37.5,48.7h0.3v-30.7c0-9.8-3-14.2-12.9-15.3v-2.7h27.8
	v2.7c-9.3,1.4-10.9,5.4-10.9,15.3v52h-6.7L239.2,436.7z M301.1,488c8.1-0.3,9.8-1.6,9.8-5.2v-53.1c0-3.5-1.7-4.9-9.8-5.2v-2.7h59.4
	l0.5,23.4l-3.2,0.1c-5.5-13.6-9.1-20.3-21.3-20.3h-10.1v28.7h3.6c7.5,0,11.1-2.1,14.2-12.1h2.6v27.6h-2.6
	c-3.1-9.9-6.7-12.2-14.2-12.2h-3.6v30.5h9.6c14.6,0,18.8-6.9,24.7-21.9l3.2,0.2l-0.7,24.9h-61.9L301.1,488L301.1,488z M395,482.8
	c0,3.8,2.6,4.9,9.4,5.2v2.7h-34.5V488c8.1-0.3,9.8-1.6,9.8-5.2v-53.1c0-3.5-1.7-4.9-9.8-5.2v-2.7H404c20.8,0,27.5,7.9,27.5,16.8
	c0,8.4-5.1,14.8-20.4,17.2v0.3c14.4,0.4,18.1,6.4,19,15l0.9,7.9c0.9,7.4,2.4,8.7,10.1,9v2.7c-3.4,0.4-6.7,0.6-9.5,0.6
	c-13.7,0-16-3.8-16.7-12.5l-0.7-8.3c-0.8-10-3.6-12.9-14.6-12.9h-4.9L395,482.8L395,482.8z M401.1,454.5c11.9,0,14.6-4.2,14.6-15.1
	c0-9.3-3.6-14.5-15.4-14.5H395v29.5H401.1z M441.7,433c-2.1-5.6-4-7.2-11.1-8.4v-2.7h35.8v2.7c-9.3,0.5-10.7,2.5-9,7.2l16.3,44.5
	h0.6l14.3-38.6c3.3-8.9,2.1-11.6-7.2-13.1v-2.7H506v2.7c-7,1.4-9.2,4.3-13,14.6L472.6,492h-8.4L441.7,433z M555.8,480.1l-21.2-58.3
	h-25v2.7c8.9,1.4,12.4,4,8.7,13.7l-13.5,35c-3.8,9.6-6.5,13.1-13.1,14.8v2.7h23.9V488c-8.9-1.4-10.1-4-6.5-13.7l3.5-9.2h22.3
	l5.3,15.3c1.8,5,0.1,7-9.4,7.5v2.7h36V488C559.2,486.8,557.7,485.3,555.8,480.1z M513.6,461.9l9.9-26.8h0.7l9.3,26.8H513.6z
	 M559.2,420.7c4.9,0,9.1,3.9,9.1,9c0,5.2-4.2,9.1-9.1,9.1c-4.9,0-9.1-3.9-9.1-9.1C550.2,424.6,554.3,420.7,559.2,420.7z
	 M559.2,437.5c4.2,0,7.4-3.4,7.4-7.7s-3.3-7.6-7.4-7.6c-4.2,0-7.4,3.4-7.4,7.6C551.8,434.1,555,437.5,559.2,437.5z M555.7,424.4h4.1
	c2.5,0,3.7,1,3.7,3c0,1.9-1.3,2.7-2.8,2.9l3,4.6h-1.7l-2.9-4.5h-1.7v4.5h-1.6L555.7,424.4L555.7,424.4z M557.3,429.1h1.7
	c1.4,0,2.8-0.1,2.8-1.7c0-1.4-1.2-1.6-2.3-1.6h-2.2V429.1z M95.3,561.6v-24.4c0-2.2-1.3-3.1-6.3-3.3v-1.5h19.4v1.5
	c-4.9,0.2-5.9,1-5.9,3.3v23.7c0,8.2,4.9,11.2,11.7,11.2c3.1,0,5.7-1,7.5-2.8c2.1-2.1,3.3-4.7,3.3-9.4v-17.4c0-5.8-1.6-8-7.6-8.8
	v-1.4h16.3v1.4c-5.6,0.9-6.5,3-6.5,8.8v18.3c0,7.9-5,13.8-15.5,13.8C101.4,574.7,95.3,570.1,95.3,561.6z M154.7,539.8L154.7,539.8
	l-0.1,23.6c0,5.9,1.2,8,7.2,8.8v1.4h-16.2v-1.4c5.6-0.9,6.9-2.9,6.9-8.8v-23.8c0-3.1-1.8-5.7-6.9-5.8v-1.5h12.6l23.2,31h0.1v-20.8
	c0-5.8-1.6-8-7.6-8.8v-1.4h16.3v1.4c-5.6,0.9-6.6,3-6.6,8.8v32h-2.8L154.7,539.8z M203.2,572.2c5.2-0.2,6.5-1.1,6.5-3.3v-31.8
	c0-2.2-1.3-3.1-6.5-3.3v-1.5h20.1v1.5c-5.2,0.2-6.4,1.1-6.4,3.3v31.8c0,2.2,1.2,3.1,6.4,3.3v1.5h-20.1V572.2z M240.3,539
	c-1.4-3.5-2.4-4.4-6.9-5.2v-1.4h19.6v1.4c-5.5,0.3-6.4,1.5-5.3,4.4l10,27.9h0.4l9.1-24.3c2.1-5.6,1.4-7.1-4.2-8v-1.4h14.5v1.4
	c-4.2,0.9-5.6,2.7-7.9,8.8l-12.5,32h-3.3L240.3,539z M287.1,572.2c5.1-0.2,6.4-1.1,6.4-3.3v-31.8c0-2.2-1.3-3.1-6.4-3.3v-1.5h34.5
	l0.2,13l-1.5,0.1c-2.9-7.7-5-11.2-12.2-11.2h-7.4v17.3h3.1c4.6,0,6.8-1.2,8.5-7.4h1.4v16.8h-1.4c-1.7-6.3-3.9-7.5-8.5-7.5h-3.1V572
	h7.2c8.4,0,11.1-3.9,14.2-12.2l1.5,0.1l-0.4,14H287L287.1,572.2L287.1,572.2z M353.5,568.8c0,2.3,1.2,3.1,6.1,3.3v1.5h-19.7v-1.5
	c5.1-0.2,6.4-1.1,6.4-3.3v-31.8c0-2.2-1.3-3.1-6.4-3.3v-1.5h18.8c12.4,0,16.5,4.6,16.5,10c0,5-3.1,8.9-11.9,10.4v0.2
	c8.4,0.5,10.1,4,10.9,9.4l0.6,4.4c0.8,4.5,1.7,5.3,6.6,5.5v1.4c-1.5,0.3-3.4,0.4-4.7,0.4c-7.6,0-9-2.1-9.5-7.5l-0.5-5.1
	c-0.6-6.1-2.4-7.5-9.2-7.5h-4.1V568.8z M358.1,552c7.7,0,9.5-3.3,9.5-9.4c0-5.6-2.4-8.6-10-8.6h-3.9v18H358.1L358.1,552z
	 M395.8,560.5h1.5c3.4,7.5,7.6,12.3,13.4,12.3s8.5-3.9,8.5-7.5c0-4.9-3.3-6.8-10.7-9.3c-6-2.1-12.2-4.1-12.2-11.8
	c0-7.8,6-12.7,14-12.7c3.5,0,6.6,0.9,8.6,1.7l2-2.1h1.4v12.8h-1.6c-2.8-6.9-6.5-10.7-11.2-10.7c-4.1,0-7.4,2.6-7.4,7.2
	c0,4.7,3.6,6.4,10.4,8.6c5.7,1.9,11.7,4.1,11.7,11.9c0,6.6-3.9,13.7-14.3,13.7c-3.4,0-7.2-1-9.7-2.2l-3.2,2.5h-1.4v-14.4H395.8z
	 M439.8,572.2c5.2-0.2,6.5-1.1,6.5-3.3v-31.8c0-2.2-1.3-3.1-6.5-3.3v-1.5h20.1v1.5c-5.2,0.2-6.4,1.1-6.4,3.3v31.8
	c0,2.2,1.2,3.1,6.4,3.3v1.5h-20.1V572.2z M482.9,572.2c5.4-0.1,6.9-1.1,6.9-3.3v-34.7h-2.3c-5,0-7.7,3.8-11,11.5l-1.5-0.1l0.3-13.2
	h36.3l0.4,13.2l-1.5,0.1c-3.1-7.4-5.9-11.5-11-11.5h-2.4v34.7c0,2.2,1.5,3.2,6.9,3.3v1.5h-21L482.9,572.2L482.9,572.2z M553.4,540.9
	c2.8-4.8,2.6-6.3-2.9-7.1v-1.4h14.2v1.4c-3.9,0.7-5.6,1.9-8.8,7.2l-8.6,14.4v13.4c0,2.2,1.2,3.1,6.4,3.3v1.5h-20.1v-1.5
	c5.2-0.2,6.5-1.1,6.5-3.3v-12.4l-10.5-18.3c-1.6-2.7-2.8-3.7-6.5-4.3v-1.4h19.2v1.4c-5.7,0.3-6.1,1.7-4.5,4.5l8.4,15.1L553.4,540.9z
	"/>
<path d="M444.5,213.8c-0.4-0.4-1.4-1.4-1.9-1.7c-0.5-0.4-1-2.6-1.1-2.8c-0.5-1.7-0.5-3.5-1-5.1c-0.2-0.8-0.2-1.6-0.2-1.8
	c0.1-0.3,1.2,0.1,1.4-0.2c0.4-0.4,0.3-0.9,0.1-1.1c-0.2-0.3-0.8-1.1-0.7-1.4c0.1-0.4,0-0.7-0.2-1.1c-0.2-0.5-0.4-0.9-0.5-1.4
	c-0.2-0.7-0.3-1.4-0.8-1.9c-0.5-0.6-0.9-1.5-1.3-2.2c-0.1-0.2-0.2-0.3-0.2-0.5c-0.3-0.7-1.1-1-1.4-1.6c-0.3-1-0.5-1.9-0.9-2.9
	c-0.2-0.6-1.4-3.2-1.6-3.6c-0.5-1-1.7-2.2-2.7-2.8c-0.2-0.1-0.3-0.4-0.4-0.7c-0.4-1-0.8-1.8-1.4-2.6c-0.1-0.2-0.2-0.4-0.4-0.6
	c-1.1-1.6-5.3-6-6.6-7.5c-0.4-0.5-1.1-0.8-1.5-1.2c-0.1-0.1-1.7-1.2-1.9-0.9c-0.1,0.2,0.2,0.7,0,0.6c-0.3-0.1-1.6-2.3-1.8-2.4
	c-0.2-0.1-0.1,0.1-0.2,0.3s1.4,2.4,1.1,2.5c-0.2,0.1-0.1,0.1-0.3,0.1c-0.3-0.1-2.6-3.4-2.8-3.4c-0.2,0.1-1.5-1.9-1.5-1.6
	c0,0.2,1.3,2.6,1.4,2.6c0.3,0.2,2,2.9,1.8,3.2c-0.9-0.8-2-2.3-2.6-2.1c-0.2,0.1,1.1,1.6,0.2,1.9c-0.3-0.3-4.4-4.8-4.8-4.9
	c-0.7-0.1,1.4,1.7,1.3,2c-0.3,0.5,3.2,4.3,3.2,4.9c0,0.5-1.1,0.8-1.7,0.8c-0.1,0-0.4,0.1-0.3,0.2c0,0.1,0.1,0.2,0.2,0.4l0,0
	c0.3,0.5,2,3.3,2.2,3.8c0.2,0.6,0.4,1,0.5,1.5c0.2,0.7,0.5,1.4,0.9,2.1c0.1,0.2,0.2,0.5,0.2,0.7c0,0.2,0.1,0.5,0,0.7
	c0,0.1-0.1,0.1-0.1,0.2l0.2,0.1c0.1,0,0.4,0.1,0.6,0.5c0.4,0.7,0.2,1.7-0.4,2.2c-0.1,0.1-0.3,0.2-0.4,0.2H416h-0.1
	c-0.2,0-0.4-0.1-0.6-0.3l-0.1-0.1l0,0c0.1,0.1,0.1,0.3,0.1,0.4c0.2,0.7,0.3,1.4,0.3,2.1l0,0c0.2,0.2,0.4,0.4,0.4,0.8
	c0,0.3,0.1,0.7,0,1s-0.1,0.6,0,1c0,0.4,0.1,0.8,0,1.3c0.4,0.6,0.5,1.2,0.5,1.5c0,0.2,0,0.4,0.1,0.5c0,0.2,0.1,0.3,0.2,0.5
	c0,0.1,0.1,0.2,0.1,0.3c0,0,0,0,0-0.1c0.2-0.2,0.5-0.4,0.8-0.4c0.5,0,1,0.4,1.1,0.9c0.1,0.7,0.1,1.4,0.1,2.1l0.1,0.8
	c0,0.1,0,0.2-0.1,0.3c-0.1,0.1-0.1,0.3-0.2,0.5c-0.2,0.3-0.5,0.5-0.9,0.5l0,0c-0.2,0-0.5-0.1-0.6-0.3c0,0.4-0.1,0.6-0.3,0.8
	c0.2,0.2,0.3,0.4,0.4,0.7l0,0l0.1,0.1c0.2,0.2,0.5,0.6,0.5,1c0,0.6-0.1,1.1-0.2,1.5c-0.1,0.4-0.1,0.6,0,0.9c0.3,1.1,0.1,2-0.6,3.1
	c-0.1,0.1-0.1,0.1-0.1,0.1c0.6,0.4,0.9,1.1,0.8,1.8c-0.1,0.6,0.2,1.6,0.4,2.6s0.4,1.8,0.4,2.5c0,0.5-0.2,1-0.4,1.4
	c-0.1,0.4-0.3,0.8-0.3,1.1c0,1-0.1,1.9-0.5,3.1c-0.1,0.4-0.2,0.8,0,1.4c0.1,0.3,0.1,0.8-0.1,1.2c-0.1,0.3-0.2,0.5-0.2,0.7
	c0,0.8-0.1,1.5-0.3,2.1l0,0c0,0,0.1,0.1,0.1,0.2c0.1,0.2,0.2,0.4,0.3,0.7c0.1,0.6-0.1,1.1-0.2,1.4c-0.4,1-0.1,1.3,0.1,1.5
	c0.1,0.1,0.2,0.2,0.2,0.3c0.1,0.3,0.1,0.7-0.2,1c0.1,0.1,0.1,0.2,0.1,0.3c0,0.2,0,0.5-0.4,0.9c-0.1,0-0.1,0.1-0.1,0.1
	c0.1,0.4,0,0.9-0.6,1.2c0,0,0,0.1,0,0.2c-0.1,1.2-0.6,2.2-1.1,3.2c-0.2,0.4-0.3,0.8-0.5,1.2h0.1h0.1c0.3,0,0.6,0.2,0.7,0.5l0.2,0.4
	l-0.3,0.4c0,0,0,0.1-0.1,0.2c-0.1,0.4-0.3,1-1.2,1.2l-0.1,0.2c-0.4,1.1-0.9,2.1-1.3,3.2c0.1-0.1,0.1-0.2,0.2-0.2
	c0.2-0.2,0.5-0.4,1-0.4c0.1,0,0.2,0.1,0.4,0.1c0.1-0.5,0.4-1,0.7-1.4c0.3-0.3,0.8-0.5,1.2-0.5h0.2c0.5,0.1,0.7,0.4,0.9,0.7
	c0.1,0.1,0.1,0.2,0.2,0.2c0.2,0.2,0.3,0.6,0.2,0.8c-0.1,0.2-0.1,0.3-0.2,0.4c-0.2,0.5-0.4,1-0.6,1.4c-0.3,0.5-0.9,0.7-1.3,0.7h-0.2
	c-0.2,0-0.3-0.1-0.5-0.2c-0.1,0.2-0.2,0.4-0.3,0.6c-0.1,0.2-0.1,0.3-0.2,0.4c-0.3,0.6-0.5,1.3-0.6,1.9c0.1,0,0.2-0.1,0.4-0.1
	c0.3,0,0.5,0.1,0.7,0.3c0.2,0.2,0.6,0.7,0.4,1.2c-0.1,0.4-0.2,0.8-0.4,1.2c-0.1,0.3-0.4,0.5-0.6,0.6l-0.2,0.1
	c-0.1,0.1-0.2,0.1-0.3,0.1c-0.2,0-0.3,0-0.4-0.1l-0.1-0.1c-0.1,0-0.1-0.1-0.2-0.1c-0.2,0.4-0.4,0.8-0.7,1.1c0.1,1-0.3,1.8-0.6,2.5
	c-0.3,0.7-0.6,1.3-0.9,1.7c-0.3,0.5-0.6,1-0.7,1.4c-0.1,0.2-0.1,0.3-0.1,0.4c-0.3,1.3-1.4,2.4-1.9,3c0,0.2,0,0.3,0,0.4
	c0,0.4-0.1,0.8-0.3,1.2c-0.1,0.1-0.1,0.2-0.2,0.3l0,0c0.2,0.1,0.3,0.2,0.4,0.4l0.1,0.3c0.1,0.1,0.1,0.3,0.1,0.4
	c0,0.2-0.1,0.3-0.1,0.5c-0.4,0.9-0.8,1.7-1.2,2.5c-0.3,0.6-0.7,0.8-1,0.8h-0.1c0.1,0.2,0.2,0.3,0.2,0.5c0,0.5-0.2,1-0.5,1.4
	c-0.2,0.3-0.6,0.3-0.7,0.3c-0.1,0-0.1,0-0.2,0c0,0,0,0-0.1,0c-0.1,0.4-0.4,0.8-1,1c-0.4,0.1-0.4,0.2-0.3,0.4c0.1,0.7-0.2,1.4-1,1.7
	c-0.5,0.3-0.6,0.5-0.7,0.9c0,0.2-0.1,0.4-0.1,0.5c-0.2,0.5-0.5,0.8-0.7,1c-0.1,0.1-0.2,0.2-0.2,0.2c-0.2,0.7-0.5,1.1-0.9,1.5
	l-0.1,0.1c-0.5,0.6-0.6,0.7-0.5,1c0.1,0.3,0.1,0.6,0,0.9c-0.2,0.3-0.4,0.5-0.8,0.6c-0.3,0.1-0.4,0.3-0.7,0.8l-0.1,0.1
	c0.2,0.4,0.3,0.9,0.1,1.3c-0.1,0.4-0.4,0.8-0.8,1c-0.1,0.1-0.2,0.2-0.4,0.3c-0.4,0.3-0.8,0.6-1.4,0.7c-0.1,0-0.3,0.1-0.4,0.3
	l-0.4,0.6c-0.3,0.5-0.6,0.9-0.9,1.3c-0.2,0.3-0.2,0.4-0.2,0.5c-0.1,0.7-0.6,1.2-1.2,1.2c0,0,0,0-0.1,0h-0.1c-0.3,0-0.6-0.1-0.8-0.4
	c-0.1-0.1-0.1-0.1-0.1-0.2l0,0c-0.1,0.1-0.3,0.3-0.6,0.3s-0.4-0.1-0.6-0.2c-0.1,0-0.1,0-0.2,0h-0.4l-0.3-0.5c0,0,0-0.1-0.1-0.1
	c-0.2,0.6-0.6,1-1,1.3c-0.1,0.1-0.3,0.3-0.4,0.4c-0.4,0.5-0.9,0.9-1.4,1.1c-0.1,0-0.2,0.1-0.2,0.1c0.1,0.6-0.3,1.1-0.8,1.3
	c-0.8,0.3-1.2,1-1.6,1.9c-0.2,0.4-0.7,0.8-1.5,1.1c0,0.1,0.1,0.2,0.1,0.3c0,0.3-0.1,0.6-0.4,0.8c-0.1,0.1-0.2,0.2-0.3,0.3
	c-0.4,0.3-0.9,0.7-1.5,0.7c-0.4,0-0.7,0.5-1,0.9l-0.1,0.2c-0.3,0.4-0.6,0.8-1.1,1.1c-0.1,0.2-0.1,0.5-0.1,0.6v0.2
	c-0.1,0.9-0.9,1.1-1.3,1.3c-0.1,0-0.1,0.1-0.2,0.1c0,0.1,0,0.1,0,0.2c0.3,0.4,0.4,0.8,0.3,1.2c-0.1,0.4-0.3,0.8-0.7,1
	c-0.1,0.1-0.2,0.1-0.3,0.4c-0.2,0.7-0.8,1-1.2,1.1l0,0c0.2,0.7-0.4,1.1-0.6,1.3l-0.1,0.2c-0.1,0.2-0.2,0.4-0.4,0.5
	c-0.5,0.5-1,0.7-1.3,0.7c-0.4,0-1-0.2-1.4-1l0,0c0,0-0.1,0-0.1-0.1c-0.2-0.1-0.4-0.2-0.5-0.4c0.1,0.2,0.3,0.4,0.3,0.7
	c0.1,0.8-0.5,1.2-0.9,1.3l0,0c0,0,0,0-0.1,0c0,0.1,0,0.3,0,0.4c-0.1,0.5-0.4,0.9-0.9,1.2s-1.1,0.4-1.5,0.5c0,0,0,0-0.1,0l0,0
	c-0.1,0-0.2,0-0.3-0.1c-0.2-0.1-0.4-0.2-0.6-0.4c-0.2-0.2-0.3-0.6-0.2-0.9c0-0.2,0.1-0.4,0.3-0.5c0,0,0.1-0.1,0.2-0.1
	c0.2-0.1,0.3-0.2,0.5-0.4c0.4-0.3,0.8-0.6,1.3-0.8c0.1,0,0.2,0,0.3-0.1c0-0.5,0.3-1,0.9-1.1c0.1,0,0.3-0.1,0.3-0.1
	c0.3,0,0.5,0.1,0.7,0.3c-0.2-0.3-0.3-0.6-0.2-1c0.2-0.6,0.8-0.7,1.1-0.8c-0.1-0.3,0-0.7,0.2-1c0.3-0.5,0.7-0.7,1.1-0.8
	c0.1,0,0.1,0,0.2-0.1c0-0.1,0-0.1,0-0.2s0-0.1,0-0.2c0-0.3,0.1-0.9,0.6-1.2c0.3-0.2,0.5-0.4,0.7-0.8c0.1-0.1,0.2-0.2,0.2-0.3
	c0.1-0.2,0.4-0.4,0.8-0.6c0.1,0,0.1-0.1,0.2-0.1c0.2-0.3,0.5-0.5,0.7-0.8c0.2-0.2,0.4-0.4,0.6-0.7c0.1-0.2,0.2-0.3,0.3-0.5
	c0.2-0.5,0.4-1,1.1-1.4c0,0,0.1-0.1,0.1-0.2c0.2-0.7,0.8-1.2,1.3-1.5c0.2-0.2,0.5-0.4,0.6-0.5c1-1.3,2-2.7,3-4.2
	c0.2-0.4,0.5-0.7,0.7-1.1c0.4-0.6,0.8-1.1,1.1-1.6c0.8-1.4,1.4-2.6,2.2-3.7l0.1-0.2c0.3-0.8,0.9-1.7,1.4-2.3l0.1-0.1
	c0.2-0.2,0.4-0.6,0.9-0.6h0.2l0.3,0.2c0.1,0.1,0.2,0.1,0.2,0.2c0.3-0.4,0.7-0.7,1.1-0.9c-0.3-0.8,0.3-1.4,0.5-1.6
	c0.1-0.1,0.2-0.2,0.3-0.3c0.3-0.4,0.6-0.8,1.1-1.1c0.2-0.1,0.4-0.3,0.8-0.4c-0.2-0.5-0.1-1,0.1-1.3l-0.1,0.1
	c-0.1,0.1-0.2,0.1-0.4,0.2c-0.1,0-0.2,0-0.2,0h-0.1c0,0-0.1,0-0.2,0c-0.1,0-0.4-0.1-0.6-0.3c-0.1-0.2-0.4-0.5-0.3-1
	c0.4-1.1,0.9-1.9,1.4-2.6c0.2-0.2,0.4-0.3,0.8-0.3c0.1,0,0.2,0,0.2,0c0.5,0.1,0.8,0.5,0.8,0.9c0,0.3-0.1,0.8-0.4,1.3V270
	c0.2-0.2,0.3-0.5,0.3-0.7c0.1-0.5,0.5-0.9,0.9-1c0.3-0.1,0.5-0.3,0.7-0.9c0.1-0.3,0.3-0.6,0.6-0.7c-0.1-0.3-0.1-0.6,0-0.9
	c0.1-0.3,0.3-0.5,0.7-0.7c0-0.1,0.1-0.4,0.1-0.4c-0.2-0.1-0.3-0.2-0.4-0.4c-0.1,0.2-0.2,0.4-0.4,0.6c-0.2,0.2-0.5,0.2-0.8,0.2H396
	c-0.4-0.1-0.6-0.3-0.8-0.6c-0.1-0.3-0.1-0.7,0-1c0.1-0.3,0.3-0.5,0.4-0.8c0.1-0.2,0.4-0.4,0.9-0.4c0.4,0,0.7,0.2,0.8,0.5
	c0,0,0,0,0-0.1l0.2-0.2l0.4-0.1c0.2,0,0.5,0.1,0.6,0.2c0.3-0.5,0.6-0.9,1.1-1.1c0.6-0.3,0.9-0.7,1-1.2c0.1-0.4,0.3-0.7,0.5-1
	c0.5-0.8,0.7-1.4,0.9-2.3c0.1-0.5,0.3-0.8,0.8-1c0.1,0,0.2-0.1,0.2-0.2c0.1-0.6,0.4-1.1,0.7-1.5c0.2-0.4,0.4-0.8,0.5-1.1
	c0.2-0.8,0.6-1.4,1-2c0.5-0.7,0.8-1.3,1-1.8c0.2-0.9,0.6-1.5,1-2.2c0.2-0.3,0.3-0.6,0.5-0.9c0.4-0.8,0.6-1.6,0.9-2.4
	c0.2-0.9,0.5-1.7,0.9-2.6c1.3-2.8,2-5,2.5-7.2c0-0.1,0-0.2,0.1-0.3l0,0c-0.2-0.7,0.2-1.3,0.4-1.6c0.1-0.2,0.2-0.4,0.3-0.5
	c0.2-1.1,0.3-2,0.4-2.9c0-0.6,0-1.2,0.3-1.7v-0.1c0-0.2,0-0.4,0.1-0.7c0.2-0.7,0.2-1.4,0.2-2.1c0-0.4,0-0.9,0-1.3
	c0.1-0.9,0.4-1.8,0.8-2.5v-0.1c0-0.1,0-0.2,0-0.3c0-1.2,0.1-2.3,0.3-3.6c0-0.2,0.1-0.9,0.7-1.2c-0.2-0.1-0.3-0.4-0.4-0.7
	c-0.1-0.4-0.2-1-0.2-0.7c0,0.4-0.4,0.7-0.6,0.8c-0.2,0.1-0.4,0.1-0.5,0.1h-0.2l-0.3-0.1c0,0-0.6-0.3-0.7-0.9l-0.1-0.3l0.2-0.3
	c0.1-0.3-0.2-1.7-0.4-2.1c-0.5-0.3-0.5-0.6-0.5-0.9c0-0.5,0.4-0.9,0.8-1c0-0.2,0-0.3-0.1-0.4c-0.1-0.1-0.1-0.3-0.2-0.7
	c0-0.2,0-0.4,0-0.6v-0.1c-0.1,0-0.1-0.1-0.2-0.2c-0.2-0.2-0.2-0.5-0.1-0.9c0.1-0.4,0.3-0.6,0.7-0.7c-0.1-0.2-0.1-0.4-0.1-0.7
	s0-0.3-0.1-0.4c-0.5-0.5-0.9-1.4-0.5-1.9c0.3-0.5,0.3-0.6,0.2-0.8c-0.4-0.6-0.2-1.3,0.1-1.7c0.4-0.6,0.4-1.3,0.4-2.1
	c0-0.2,0-0.3,0-0.3c0-0.1,0-0.2,0-0.3c-0.3-0.1-0.4-0.4-0.4-0.8c0-0.3,0.2-0.5,0.4-0.7c0-0.4,0-0.7,0.1-1c0.1-0.5,0.1-0.9,0-1.3
	c-0.1-0.3-0.1-0.6,0-0.8c0.1-0.7,0-1.4-0.2-2.2c-0.1-0.4-0.1-0.8-0.2-1.1c0-0.3-0.1-0.6-0.1-0.9c-0.1-0.7-0.2-1.3-0.1-2
	c0-0.9,0.3-1.7,0.3-2.6l-0.1-0.9c0-0.2,0-0.4-0.1-0.5c-0.2-0.6-0.3-1.5-0.4-2.2c-0.2-0.9-0.5-1.7-0.9-2.5c-0.1-0.2-0.1-0.3-0.2-0.5
	c0-0.1,0-0.1-0.1-0.2l-0.2-0.1c-0.3,0.4,0,0.7,0.2,1c0.4,1.1,0.6,2.2,0.8,3.3c0.1,0.4,0.1,0.7,0,1.1c0,0.1-0.1,0.2-0.2,0.2
	s-0.3,0-0.3-0.2c-0.1-0.3-0.1-0.5-0.1-0.8c0-0.3-0.1-0.6-0.3-0.9c0-0.1-0.2-0.1-0.2-0.1s-0.1,0-0.1,0.1s-0.1,0.2-0.1,0.3
	c0,1.2,0.2,2.3,0,3.5c-0.1,0.2,0.1,0.5,0.2,0.8c0.1,0.4,0.1,0.7,0,1.1c0,0.1-0.1,0.1-0.2,0.1c-0.1,0-0.2-0.1-0.2-0.2
	c-0.1-0.2-0.2-0.4-0.2-0.7c0-1-0.1-2-0.1-3c0-0.2-0.3-0.4-0.5-0.4c-0.1,0-0.2,0.2-0.2,0.3c0,0.2,0.2,1.9,0.2,2.1
	c-0.1,1.2,0.7,5.6,0.7,7.4c0,0.9-0.3,1.7-0.3,2.6c0,0.8,0.4,1.4,0.3,2.2c-0.1,0.8,0.2,1.7,0.1,2.5c-0.1,0.7,0,1.4-0.4,2.1
	c-0.1,0.1-0.1,0.4-0.1,0.5c-0.1,1.4,0.4,3.5,0.1,4.9c-0.5,2.2-0.8,5.1-1.3,7.6c-0.6,2.7-1.5,5.3-1.9,8c0,0.1-0.1,0.3-0.1,0.4
	c-0.5,0.9-0.6,1.9-0.8,2.9c-0.1,0.7-0.3,1.3-0.6,1.8c-0.4,0.6-0.3,1.4-0.9,1.9c-0.1,0-0.1,0.2,0,0.3c0.1,1-0.5,1.8-0.7,2.8
	c0,0.1-0.5,0.8-0.6,0.9c-0.1,0.1-0.6-0.6-0.7-0.6c-0.2,0-0.2-0.2-0.1-0.3c0.3-0.5,0.4-1,0.4-1.5c0-0.2,0.1-0.4,0.1-0.7
	c0.7-2.1,1.3-4.2,1.9-6.5c0.2-0.8,0.6-1.4,0.8-2.2c0.6-2.1,1.1-4.3,1.6-6.5c0.1-0.6,0.3-1.1,0.4-1.6c0.3-1.7,0.3-4.9,0.6-6.7
	c0.2-1-0.1-1.9,0-2.9c0.2-1.7,0.5-3.4,0.8-5c0.1-0.7-0.2-1.4-0.2-2c0-0.1-0.1-0.2-0.1-0.2c-0.1,0-0.2,0.1-0.2,0.1
	c-0.2,1.1-0.5,2.2-0.6,3.4c-0.1,0.9-0.1,1.6-0.3,2.4c-0.2,1-0.2,1.9-0.4,2.8c-0.1,0.4-0.3,0.5-0.7,0.4c-0.1,0-0.1-0.1-0.2-0.2
	c-0.3-0.1-0.4,0-0.4,0.3c0,0.4,0.1,0.7,0.6,0.6c0.4,0,0.5,0.1,0.5,0.4c0,0.8-0.2,1.5-0.4,2.3c-0.1,0.3,0.3,2-0.1,2.2
	c-0.6,0.2-0.3,0.8-0.3,1.3c-0.1,1.3-0.2,2.5-0.9,3.7c0,0.1-0.1,0.2,0,0.3c0,0.9-0.4,1.6-0.4,2.5c0,0.5-0.2,0.9-0.5,1.2
	c-0.3,0.4-0.4,0.8-0.4,1.2c0,0.4-0.2,1-0.1,1.3c0,0.3,0.1,0.7-0.1,0.9c-0.4,0.4-0.6,1-0.5,1.5c0,0.2-0.1,0.2-0.2,0.3
	c-0.2,0-0.4,0.1-0.5-0.1c-0.1-0.2-0.1-0.3-0.2-0.5c-0.3-0.7,0.2-1.3,0.4-1.8c0.1-0.4,0.4-1,0.5-1.2c0.3-0.5,0.4-1.1,0.3-1.6
	c-0.1-0.4,0.1-0.8,0.5-1.1c0.1-0.1,0-0.3-0.2-0.3c-0.1,0-0.3,0-0.4,0c-0.1,0-0.1,0-0.2,0c-0.6,0.7-1,1.4-1,2.3
	c0,0.6-1.4,3.5-1.1,4.3c0.1,0.2-0.3,1.4-0.3,1.6c0,0.6,0.5,1,0.6,0.8c0.2-0.3,0.4-0.8,0.7-1.5c0-0.1,0.1-0.1,0.2-0.2
	c0.1,0,0.2,0,0.2,0c0.1,0.2,0.2,0.5,0.3,0.7c0,0.3-0.1,0.4-0.2,0.6l-0.3,0.4c-0.6,0.8-0.3,1.7-0.4,2.6c0,0.3,0.1,0.4-0.2,0.7
	c-0.4,0.4-0.2,0.9-0.4,1.4c-0.1,0.5-0.3,0.7-0.3,1.3c0,0.1,0,0.2,0,0.3c0,0.2,0,0.4-0.1,0.5c-0.4,0.6-0.6,1.1-0.4,1.7
	c0.1,0.2-0.1,0.5-0.4,0.6c-0.2,0-0.3-0.2-0.2-0.6c0-0.1,0.1-0.2,0.1-0.3c0-0.1-0.1-0.2-0.2-0.3h-0.2c-0.4,0.4-0.8,0.8-0.8,1.4
	c0,0.2-0.6,1.3-0.6,1.6c0,0.3,0,0.5-0.1,0.6c-0.6,0.9-0.9,1.8-1.3,2.7c-0.3,0.6-0.5,1.3-0.5,1.9c0,0.3-0.1,0.4-0.2,0.6
	c-0.5,0.6-0.6,1.3-0.6,1.9c0,0.2,0.1,0.5,0,0.7c-0.4,0.7-1.7,4.7-2.1,5.4c-0.3,0.6-2.2,5.5-2.5,6c-0.2,0.3-0.2,0.6,0,0.9
	c0.2,0.3-0.1,0.8-0.3,1c-0.1,0.1-0.3,0.2-0.5,0.3c-0.5,0.3-0.8,1.4-0.9,1.9c-0.2,1.1-0.8,2.3-1.1,2.5c-0.2,0.2-0.5,1-0.5,1
	c-0.4,0.2-1.3,1.6-1.4,1.7c-0.6,0.8-1.2,2.6-1.4,2.6c-0.3,0.1-0.3,0.4-0.5,0.6c-0.4,0.5-0.8,0.9-1,1.4c-0.3,0.7-0.8,1.4-1.4,1.9
	c-0.3,0.4-0.6,0.6-0.7,1.1c-0.1,0.3-0.2,0.5-0.4,0.7c0-0.2-0.4,0.3-0.4,0.5l0,0c-0.3,0.4-0.6,0.9-0.9,1.3c-0.1,0.1-0.9,1.2-0.8,1.2
	l0,0c0,0.1-0.1,0.1-0.1,0.2c-0.4,0.6-0.9,1-1.3,1.5c-0.8,1.1-1.4,2.2-2.4,3.1c-0.2,0.2-0.5,0.5-0.5,0.8c-0.2,0.6-0.6,0.9-1.1,1.2
	c-0.4,0.3-0.8,0.5-0.8,1c-0.1,0.6-0.9,0.4-1.1,0.9c-0.1,0.2-0.2,0.3-0.3,0.5c-0.3,0.4-0.6,0.8-0.9,1.2c-0.5,0.4-0.8,1-1.2,1.4
	c-0.3,0.4-0.5,0.8-0.9,1.2c-0.5,0.4-0.9,1-1.4,1.4c-0.7,0.6-1.3,1.4-2,1.8c-0.7,0.4-1.3,1-1.7,1.6c-0.8,1-1.4,2-2.6,2.7
	c-0.1,0.1-0.2,0.2-0.3,0.3c-0.3,0.5-0.8,0.9-1.2,1.2c-1,0.8-1.8,1.6-2.8,2.3c-0.3,0.2-0.6,0.4-0.8,0.7c-0.6,0.5-1.1,1.1-1.6,1.5
	s-1.2,1-1.6,1.6c-0.1,0.2-0.3,0.3-0.5,0.4c-0.5,0.4-1.2,0.5-1.5,0.9c-0.5,0.4-0.9,0.9-1.4,1.2c-0.7,0.4-1.4,0.8-1.9,1.4
	c-1,1-2.1,1.6-3.3,2.4c-1,0.7-1.9,1.3-2.9,1.9c-0.1,0-0.3,0-0.6,0c0,0.1,0,0.3,0,0.4c-0.1,0.1-0.3,0.2-0.4,0.3
	c-0.8-0.1-0.8-0.1-0.8,0.3c0,0.1,0,0.1,0,0.2c-1.4,0.8-2.6,1.8-4.2,2.3c-0.5,0.1-0.8,0.5-1.3,0.8c-1.4,0.8-3,1.4-4.3,2.4
	c-0.9,0.6-1.8,1.1-2.9,1.2c-0.3,0.1-0.6,0.2-0.7,0.5c-0.2,0.5-0.4,0.5-0.8,0.2c-0.1-0.1-0.3-0.1-0.4-0.1c-0.5,0.2-1,0.3-1.4,0.6
	c-1,0.6-2,1-3,1.4c-0.6,0.3-1.2,0.6-1.6,1.1c-0.3,0.3-0.7,0.5-1.1,0.7c-0.5,0.2-1,0.4-1.4,0.7c-0.4,0.3-0.7,0.4-1.1,0.4
	s-0.7,0.2-0.8,0.6c-0.1,0.3-0.4,0.5-0.6,0.5c-0.9,0-1.4,0.5-2.2,0.8c-0.5,0.2-1,0.5-1.5,0.2c-0.2-0.1-0.3,0-0.5,0.2
	c-0.4,0.4-0.7,0.8-1.4,0.9c-0.4,0-3.8,1.6-4.1,1.5c-0.7,0-1.3,0.3-1.8,0.6c-0.7,0.3-1.4,1.2-1.7,0.8c-0.2-0.2-0.4-0.3-0.7-0.3
	c-0.5,0-0.9,0.1-1.3,0.3c-0.4,0.2-0.7,0.4-1.1,0.4c-0.5-0.1-1.3,0.4-1.4,0.5c-0.2,0.1-1.4,0.9-1.8,1c-0.4,0.1-2.8,0.9-3.2,0.5
	c-0.1-0.1-0.3-0.1-0.4-0.1c-0.7,0.1-1.3,0.6-1.9,0.2c-0.1-0.1-0.3,0.1-0.5,0.2c-0.4,0.2-1.3-0.1-1.4-0.1c-1.4,0.3-2.7,0.5-4,0.8
	c-1.6,0.4-3.3,0.6-4.9,0.5c-2,0-4.2,0-6.2-0.1c-2,0-4.2-0.3-6.3-0.6c-2.8-0.4-8-1.5-10.8-2.1c-0.1,0-0.3,0.2-0.3,0.3
	c0,0.1,0.4,0.4,0.5,0.5c0.7,0.3,3.6,1.4,4.2,1.6c0.3,0.1,0.4,0.2,0.3,0.5c-0.8,0.3-2.5-0.2-3-0.3c-0.1,0-0.2,0.1-0.2,0.1
	c0,0.1,0.9,0.6,0.9,0.7c0.5,0.1,2,1.4,2.6,1.5c0,0,0.4,0.2,0.7,0.2c0.5,0.2,1.2,0.2,1.6,0.4c0.9,0.4,1.7,0.9,2.6,1.2
	c0.6,0.2,1.3,0.4,1.8,0.7c1.1,0.5,2,1,3.1,1.3c1,0.3,1.8,0.7,2.7,0.9c2.2,0.4,4.5,1.6,6.8,1.7c1.1,0.4,1.5,0.4,2.7,0.9
	c0.1,0.1,0.8,0.2,0.9,0.2c2.5,0.2,4.8,0.6,7.2,1.1c2,0.4,4.4,0.4,6.5,0.6c2.1,0.3,3.9,0.3,6,0.7c2.1,0.4,5.2-0.1,7.3,0.3
	c2.2,0.4,4.4-0.1,6.7,0.1c0.2,0,0.4,0,0.5,0c1.3,0,2.4-0.1,3.7-0.1c0.4,0,0.9,0,1.4,0.1c2.2,0.3,4.4-1.1,6.7-1.1
	c0.2,0,0.5,0,0.7-0.1c0.7-0.3,1.4-0.3,2-0.4c1.8-0.1,3-0.9,4.8-1c3-0.2,4.5-1.1,7.4-1.8c0.8-0.2,1.6-0.4,2.4-0.6
	c1.4-0.3,2.9-0.6,4.2-0.9c1.4-0.4,2.9-0.8,4.3-1.3s2.9-1.2,4.3-1.8c0.5-0.2,0.9-0.3,1.4-0.5c1.7-0.7,3.4-1.4,5.1-2.1
	c1.8-0.7,3.6-1.4,5.3-2.3c0.3-0.2,0.7-0.4,1.1-0.4c1-0.2,1.9-0.7,2.7-1.3c0.5-0.4,1.1-0.7,1.5-0.9c0.7-0.3,1.3-0.6,1.8-1
	c0.2-0.1,0.5-0.3,0.6-0.5c0.3-0.4,0.6-0.7,1.1-0.6c0.3,0,0.4-0.1,0.5-0.4c0-0.1,0.1-0.3,0.2-0.3c0.7-0.3,1.2-0.9,1.8-1.3
	c1.4-0.8,4-2.1,5.3-3.1c2.4-1.8,4-2.6,6.3-4.4c1.3-1.1,2.6-1.9,3.8-3c0.7-0.6,1.4-1.2,2.1-1.7c0.3-0.3,0.5-0.5,0.8-0.7
	c0.2-0.1,0.5-0.3,0.7-0.4c1.4-1.6,3.3-2.8,4.7-4.5c0.6-0.7,1.4-1.3,2-1.8c0.6-0.6,1.2-1.2,1.6-1.8c1.1-1.3,2.4-2.4,3.5-3.8
	c0.3-0.3,0.5-0.8,0.8-1.1c1.1-1,2.3-2.2,3.1-3.3c1-1.3,1.6-2,2.5-3.4c0.7-1,1.5-1.8,1.8-3c0-0.1,0.1-0.3,0.2-0.3
	c0.7-0.5,1-1.3,1.4-1.9c0.5-1.1,1.8-1.7,2.1-2.9c0.9-1,1.3-2.1,2-3.2c0.6-0.8,0.7-1.2,1.2-1.9c0.5-0.8,1.3-1.4,1.6-2.1
	c0.5-1.1,1.1-2.4,1.7-3.4c0.6-0.9,0.8-1.8,1.5-2.5c0.1-0.1,0.1-0.3,0.1-0.4c0-0.6,0.4-1.1,0.6-1.5c0.6-1.2,0.9-2.3,1.5-3.5
	c0.4-0.7,0.8-1.4,1.1-2.2c0.1-0.2,0.2-0.4,0.2-0.6c0-0.2,0-0.4,0.1-0.7c0.8-1.4,1.7-3,2.3-4.5c0.3-0.7,0.8-2.3,0.8-2.4
	c0.6-1.2,1.1-2.3,1.4-3.5c0.2-0.5-0.3-1.1-0.3-1.6c0-0.3,0.1-0.5,0.2-0.8c0.2-0.4,0.8-2.2,0.8-2.4c0.1-0.8,0.5-0.9,0.2-1.7
	c-0.3-0.8-0.3-1.6,0.6-2.1c0.2-0.1,0.8-1,0.9-1.4c0.4-1.3,0.2-2.1,0.6-3.5c0.2-0.6,0.3-1.1,0.1-1.7c-0.1-0.2,0-0.4,0.1-0.7
	c0.6-1.4-0.3-2.9-0.2-4.4c0.1-1.4-0.1-2.8,0.4-4.2c0.1-0.2,0-0.4,0-0.7c0-0.4,0-0.8,0-1.2c0.1-1.6,0.1-3.3,0.2-4.8
	c0.1-1.3,0.7-2.4,0.7-3.7c0-1.5,0-3.2-0.1-4.7c-0.1-1.1-0.2-2,0.2-3C444.7,214.3,444.8,214,444.5,213.8z M403.3,245.9
	c0.2,0.3,0.2,0.7,0.1,0.9v0.1l0,0c0.1-0.1,0.1-0.1,0.3-0.2l-0.1-0.1c-0.3-0.7-0.2-1.3,0.2-1.8c0.3-0.4,0.6-0.8,0.8-1.2
	c0-0.1,0.1-0.1,0.1-0.2c-0.4-1.4,0.1-2.5,0.7-3.4c0.1-0.1,0.2-0.3,0.3-0.4l0.1-0.1v-0.1c-0.3-0.1-0.5-0.4-0.7-0.7
	c-0.4-0.9-0.3-1.7,0.1-2.3c0.3-0.4,0.4-0.6,0.4-0.8c0-0.7,0.6-1.1,0.9-1.1l0,0c-0.3-0.2-0.4-0.5-0.4-0.8c0-0.1,0-0.2,0-0.4
	c-0.1-0.4-0.1-0.9,0.2-1.4c0.1-0.2,0.2-0.5,0.3-0.7c0-0.2,0-0.4,0-0.6c0-0.5,0-1.1,0.5-1.7c0.7-1,1-1.7,0.9-2.6
	c-0.1-0.6,0.2-1.2,0.5-1.6c0.1-0.2,0.2-0.4,0.3-0.6c0.1-0.4,0.2-0.8,0.3-1.1c0.1-0.7,0.8-1,1.4-1c0.2,0,0.3,0,0.4,0.1
	c0.6,0.2,0.9,0.7,0.8,1.4c-0.1,0.9-0.2,1.6-0.4,2.5c0,0.3-0.1,0.6-0.1,0.9c-0.1,0.9-0.3,1.8-0.3,2.8c0,0.4-0.1,0.8-0.2,1.1
	c-0.1,0.2-0.1,0.3-0.1,0.5c-0.1,1-0.9,1.2-1.2,1.2c-0.2,0.5-0.4,0.9-0.7,1.3c-0.1,0.2-0.2,0.3-0.3,0.4c0.2-0.1,0.4-0.1,0.5-0.1
	c0.3,0,0.6,0.1,0.9,0.3s0.5,0.4,0.5,0.7c0.1,0.3,0,0.5-0.2,0.8c-0.2,0.3-0.4,0.4-0.6,0.4c-0.2,0.2-0.5,0.4-0.9,0.4
	c-0.1,0-0.3,0-0.4-0.1l0,0c0,0,0,0,0.1,0c0.5,0,0.8,0.2,1.1,0.4c0.2,0.2,0.4,0.5,0.3,1.1v0.3c0,0.2-0.1,0.4-0.1,0.6
	c-0.2,0.4-0.5,0.6-0.8,0.7c0,0.1,0,0.1,0,0.2c0.1,0.4,0.4,1.2-0.4,1.7l0,0c0,0,0,0.1,0,0.2c-0.1,0.3-0.3,0.7-0.7,1
	c0.1,0.8-0.3,1.4-0.7,1.6c0.1,1.2-0.5,2.1-1,2.9c-0.2,0.3-0.5,0.5-0.8,0.6c0.1,0.2,0.1,0.3,0.1,0.5c0,0.3-0.1,0.6-0.2,0.9
	c-0.1,0.4-0.4,0.6-0.8,0.7c-0.1,0-0.1,0-0.2,0c-0.2,0-0.5-0.1-0.6-0.2l-0.1-0.1c-0.1-0.1-0.3-0.3-0.4-0.6c-0.1-0.2-0.1-0.3-0.1-0.5
	c-0.2,0.1-0.5,0.2-0.6,0.2h-0.3c-0.3,0-0.6-0.1-0.8-0.4c-0.3-0.3-0.2-0.7-0.2-0.8c0-0.3,0.1-0.5,0.1-0.7c0.2-0.6,0.7-0.9,1.2-0.9
	C402.9,245.6,403.1,245.7,403.3,245.9z M400.3,237.9c0-0.3,0-0.5,0.1-0.7c0.1-0.5,0.6-0.8,1.1-0.8c0.6,0,1.1,0.4,1.1,0.9
	c0.1,0.5-0.1,0.9-0.4,1.3c0,0.3,0,0.7-0.1,1.1c-0.2,0.5-0.6,0.9-1.2,0.9l0,0c-0.4,0-0.6-0.2-0.9-0.4c-0.2-0.3-0.4-0.7-0.3-1.1
	C399.8,238.6,400,238.2,400.3,237.9z M393,257.1l0.1-0.2c0.2-0.4,0.2-0.5,0.2-0.6c-0.2-0.6,0-1.3,0.6-1.5c0.3-0.1,0.4-0.4,0.6-1
	l0.1-0.4c0.8-1.8,1.4-3.3,2.1-4.7c0.5-1,0.8-1.7,1.1-2.5c0.3-0.8,0.6-1.6,1-2.3c0.1-0.3,0.2-0.5,0.3-0.8c0.1-0.2,0.2-0.5,0.7-0.7
	c0.2-0.1,0.3-0.1,0.5-0.1c0.4,0,0.7,0.2,1,0.5l0.1,0.1c0.1,0.3,0.1,0.6,0,0.9c-0.1,0.2-0.2,0.4-0.2,0.7c-0.1,0.3-0.1,0.6-0.3,1
	c-0.1,0.3-0.2,0.5-0.3,0.8l-0.4,1.2c-0.2,0.7-0.5,1.4-0.9,2.1c-0.3,0.5-0.5,1-0.5,1.6c0,0.6-0.3,1.1-0.5,1.4
	c-0.1,0.2-0.2,0.3-0.3,0.5c-0.3,0.5-0.5,0.8-0.6,1.1c0,0,0,0.1,0,0.2c0,0.1-0.1,0.2-0.1,0.3c-0.4,0.5-0.6,1-0.8,1.5
	c-0.2,0.5-0.3,1-0.6,1.4l-0.1,0.1c-0.2,0.3-0.4,0.7-0.6,1c0,0.1-0.1,0.1-0.1,0.2c-0.1,0.1-0.4,0.7-1.2,0.7h-0.2
	c-0.3,0-0.6-0.2-0.7-0.5C392.6,258.4,392.7,257.9,393,257.1z M390.6,262.6c0.1-0.1,0.3-0.2,0.4-0.2c0.1-0.5,0.4-0.9,0.7-1.3
	c0,0,0.4-0.5,1-0.5c0,0,0.1,0,0.2,0s0.1,0,0.2,0c0.2,0.1,0.9,0.4,0.6,1.4c-0.2,0.7-0.6,1.2-1.1,1.5c-0.1,0.5-0.3,0.9-0.7,1.2
	c-0.2,0.1-0.4,0.2-0.6,0.2c-0.4,0-0.8-0.3-1-0.7C389.9,263.7,390.1,263,390.6,262.6z M269.9,342.6l-0.3,0.2
	c-0.2,0.1-0.3,0.1-0.4,0.2c-0.1,0-0.2,0.1-0.3,0.1c-0.1,0-0.2,0-0.2,0c-0.1,0-0.1,0-0.2,0h-0.1c-0.1,0-0.3-0.1-0.5-0.1
	c-0.3-0.1-0.6-0.4-0.7-0.6l0,0h-0.1h-0.2H267c-0.2-0.1-0.4-0.1-0.6-0.1c-0.5-0.1-1-0.1-1.4-0.4c-0.2-0.1-0.4-0.1-0.7-0.1
	s-0.5-0.1-0.7-0.1c-0.4-0.1-0.8-0.5-0.9-0.9c-0.1-0.3,0-0.7,0.3-0.9c0.3-0.2,0.4-0.3,0.7-0.4c0.1,0,0.2-0.1,0.4-0.1h0.4
	c0.3,0,0.4,0.1,0.5,0.1c0.8,0.1,1.9,0.3,2.9,1c0.2,0.1,0.3,0.3,0.4,0.5h0.1c0.1,0,0.2,0,0.2,0c0.3,0,0.5,0,0.8,0.1
	c0.3,0.1,0.5,0.3,0.7,0.4l0.2,0.2c0.2,0.2,0.3,0.4,0.2,0.6C270.3,342.3,270.1,342.5,269.9,342.6z M283.3,347.5
	c-0.3,0.1-0.6,0.2-0.9,0.2c0,0-0.1,0-0.2,0h-0.1c-0.4-0.1-0.9-0.2-1.3-0.3h-0.1c-1.2-0.2-2.3-0.4-3.5-1.1c-0.2-0.1-0.4-0.1-0.7-0.2
	c-0.2,0-0.3-0.1-0.4-0.1c-1-0.3-1-0.9-1-1.3c0,0,0,0,0-0.1c-0.1,0.1-0.2,0.2-0.4,0.2c-0.4,0.2-0.8,0.2-1.2,0.2h-0.1
	c-0.3,0-0.6-0.2-0.7-0.3c0,0-0.2,0-0.3,0c-0.6,0-1.1-0.4-1.2-1c-0.1-0.5,0.1-0.9,0.5-1.1c0.2-0.1,0.4-0.2,0.6-0.2
	c0.3,0,0.6,0.1,0.8,0.2c0.2-0.2,0.5-0.3,0.8-0.3c0.1,0,0.3,0,0.5,0c0.4,0,0.7,0.1,1,0.3c0.2,0.2,0.3,0.5,0.3,0.7s0,0.3-0.1,0.4
	c0.2-0.2,0.5-0.3,0.7-0.3c0.4,0,0.7,0.1,1,0.1l0.7,0.1c-0.1,0-0.1,0-0.2-0.1c-0.4-0.2-0.6-0.5-0.6-0.8c0-0.3,0-0.8,0.5-1.1
	s1.2-0.7,1.9-0.7c0.1,0,0.2,0,0.3,0c0.3,0,0.6,0.2,0.7,0.3l0.2,0.1c0.2,0.1,0.3,0.3,0.3,0.4c0,0.2,0,0.4-0.1,0.5l-0.1,0.1
	c-0.1,0.2-0.3,0.5-0.6,0.7c-0.6,0.4-1.2,0.5-1.7,0.6h0.1c0.4,0,0.7,0.1,1.1,0.1c0.8,0.1,1.8,0.3,2.8,1.1l0,0h0.1
	c0.2,0,0.3,0.1,0.5,0.1c0.5,0.2,0.8,0.7,0.7,1.2C284,346.9,283.8,347.3,283.3,347.5z M339.8,320.1c-0.3,0.4-0.7,0.5-1,0.6
	c-0.2,0.4-0.6,0.6-0.7,0.7c-0.5,0.3-0.8,0.4-1.2,0.5l-0.4,0.2c-0.1,0.1-0.3,0.1-0.5,0.1c-0.1,0-0.1,0-0.2,0c0,0.1-0.1,0.3-0.2,0.4
	c-0.4,0.4-1,0.7-1.4,1c-0.1,0-0.3,0.1-0.4,0.1c-0.3,0-0.6-0.1-0.8-0.4c-0.2-0.2-0.3-0.6-0.3-0.9c0.1-0.3,0.3-0.6,0.6-0.8
	c0.4-0.2,0.8-0.4,1.2-0.6l0.3-0.1c0.1,0,0.2,0,0.2,0c0.1,0,0.1,0,0.2,0c0-0.1,0.1-0.2,0.2-0.3l0,0c0.6-0.8,1.3-1.3,2.1-1.3
	c0.3-0.5,0.8-0.8,1.3-0.8c0.2,0,0.5,0.1,0.7,0.2c0.3,0.1,0.5,0.4,0.5,0.7C340.2,319.5,340.1,319.9,339.8,320.1z M375.5,285.5
	c0.1-0.5,0.5-0.9,1.1-0.9c0,0,0.1,0,0.2,0c0-0.1,0.1-0.2,0.1-0.2c0.1-0.1,0.1-0.2,0.1-0.3c0.2-0.4,0.4-1,0.9-1.3
	c0.1-0.1,0.2-0.1,0.3-0.1l0,0c0.6,0,1,0.3,1,0.7c0,0.1,0.1,0.5-0.1,0.9c0,0-0.1,0.1-0.1,0.2c-0.1,0.3-0.3,0.8-0.8,1.2
	c-0.1,0.8-0.7,1.3-1.1,1.6l-0.2,0.2c-0.1,0.1-0.3,0.2-0.4,0.2h-0.1c-0.4,0-1.1-0.3-1.1-0.9C375.5,286.3,375.5,285.9,375.5,285.5z
	 M362.2,305.2c-0.1,0.1-0.3,0.3-0.4,0.4c-0.4,0.5-0.9,1-1.6,1.4l-0.1,0.1c0.1,0.3,0.1,0.6-0.1,0.9c-0.1,0.3-0.4,0.5-0.8,0.5
	c-0.1,0-0.3,0-0.6,0h-0.2c-0.3,0-0.3,0.1-0.4,0.2c-0.4,0.9-0.9,1.3-1.7,1.4c0,0,0,0,0,0.1c-0.1,0.1-0.2,0.3-0.3,0.4
	c-0.4,0.4-0.8,0.5-1.1,0.5h-0.1c-0.2,0.2-0.5,0.4-0.9,0.4l0,0c0,0,0,0-0.1,0c-0.5,0-0.9-0.3-1-0.8c-0.1-0.4-0.2-1.2,0.9-1.5
	c0.7-0.7,1.4-1.3,1.9-1.8l0.3-0.2c0.5-0.4,1-0.9,1.4-1.3c0.3-0.3,0.7-0.6,1-0.9c0.6-0.5,1.3-1.1,1.7-1.6c0.3-0.3,0.6-0.7,0.9-0.9
	c0.5-0.5,0.8-0.8,1-1.3c0.1-0.3,0.4-0.7,0.9-0.7c0.1,0,0.2,0,0.5-0.4c0.1-0.2,0.3-0.4,0.5-0.6c0.3-0.2,0.5-0.5,0.8-0.7
	c0.8-0.7,1.5-1.4,2-2.2l0.1-0.1l0.1-0.1c0.3-0.2,0.6-0.5,0.9-0.7c0.3-0.3,0.7-0.6,1.1-0.9c0.1-0.4,0.3-0.7,0.5-1
	c0.4-0.4,0.7-0.8,0.8-1.3c0.1-0.6,0.6-0.9,1.2-1c0.1,0,0.3,0,0.6-0.5c0.3-0.6,0.8-1.1,1.4-1.6l0.1-0.1c0.1-0.2,0.5-0.6,1.1-0.7h0.1
	c0.3,0,0.6,0.1,0.7,0.3c0.3,0.5,0.5,1.1-0.2,1.7c-0.1,0.3-0.5,0.9-0.5,0.9c-0.1,0.2-0.3,0.4-0.4,0.7s-0.3,0.7-0.7,0.9
	c-0.3,0.2-0.5,0.5-0.7,0.8c-0.5,1.2-1.4,1.6-2.3,1.9c0,0.2,0,0.6-0.2,0.9c-0.2,0.2-0.4,0.4-0.7,0.4c0,0,0,0.1,0,0.2
	c-0.1,0.1-0.1,0.2-0.1,0.3c-0.6,1.3-1.5,2.5-2.8,3.7C365,302.5,363.6,303.9,362.2,305.2z M395.1,294.4c-0.2,0.1-0.3,0.1-0.5,0.1
	c-0.4,0-0.7-0.1-1-0.4c-0.3-0.4-0.5-0.8-0.5-1.4c0-0.9,1-2.3,1.5-2.5c0.3-0.1,0.5-0.2,0.7-0.2c0.5,0,1.3,0.2,1.5,1.6
	C397.1,292.7,395.8,294.2,395.1,294.4z M403.4,282c-0.1,0-0.1,0-0.2,0c-0.1,0.6-0.4,1.2-0.9,1.6c-0.4,1-1.2,1.6-1.8,2.2
	c-0.1,0.1-0.3,0.2-0.4,0.3c-0.1,0.6-0.4,1.1-1,1.4l-0.1,0.1c0,0.3,0,0.5-0.1,0.7c-0.2,0.3-0.5,0.6-0.8,0.7H398c0,0-0.1,0-0.2,0
	s-0.1,0-0.1,0s-0.1,0-0.2,0c0,0-0.2-0.1-0.3-0.1c-0.5-0.2-0.8-0.5-0.8-1c-0.1-0.4,0.1-0.8,0.4-1.1c0.2-0.2,0.5-0.3,0.7-0.4l0,0
	c0-0.1,0-0.3,0.1-0.4c0.2-0.4,0.4-0.8,0.8-1.2c0-0.3,0.2-0.7,0.6-1c0.5-0.3,0.7-0.8,1-1.4c0.1-0.2,0.2-0.4,0.2-0.5
	c0.2-0.5,0.6-0.9,0.9-1.3c0.2-0.2,0.5-0.4,0.8-0.5c0.1-0.3,0.3-0.5,0.6-0.6c0.2-0.1,0.4-0.1,0.6-0.1c0.3,0,0.6,0.1,0.9,0.3
	c0.2,0.2,0.5,0.5,0.5,0.9C404.3,281.5,403.9,281.9,403.4,282z M408.4,275.3c-0.1,0.3-0.2,0.5-0.3,0.6c-0.2,0.3-0.4,0.4-0.4,0.4
	c-0.1,0.1-0.4,0.2-0.6,0.2H407c-0.1,0-0.3,0-0.4-0.1c-0.2,0.2-0.5,0.3-0.7,0.3c-0.1,0-0.3,0-0.4-0.1c-0.6-0.2-0.8-0.7-0.7-1.3
	c0.1-0.7,0.3-1.6,1-2.4c0.2-0.3,0.5-0.5,0.8-0.7c0.2-0.2,0.5-0.2,0.6-0.2c0.3,0,0.6,0.1,0.8,0.3c0.4,0.4,0.3,0.9,0.2,1.2
	c0,0.1-0.1,0.3-0.2,0.4c0.1,0.1,0.2,0.2,0.3,0.3C408.7,274.5,408.5,275,408.4,275.3z M421.5,214.9c0.2,0,0.5,0.1,0.6,0.2l0.1,0.1
	c0.5,0.7,0.1,4-0.2,5c-0.1,0.3-0.3,0.5-0.5,0.6c-0.1,0.2-0.3,0.3-0.5,0.3h-0.1c-0.2,0-0.3-0.1-0.4-0.2l-0.1-0.1
	c-0.1-0.1-0.3-0.2-0.4-0.5c-0.1-0.2-0.1-0.4-0.1-0.6l0.1-0.7c0.1-1.3,0.2-2.6,0.7-3.7C420.8,215.1,421.1,214.9,421.5,214.9z
	 M418.8,190.5c-0.5,0-1-0.3-1.1-0.8l-0.2-0.4c-0.1-0.4-0.3-0.8-0.4-1.3c-0.1-0.5-0.1-1-0.1-1.4v-0.4c0-0.4,0.3-0.7,0.4-0.8l0.1-0.1
	l0,0c0.1-0.1,0.3-0.2,0.5-0.2c0.1,0,0.3,0,0.4,0.1l0.1,0.1c0,0,0.3,0.2,0.4,0.4c0,0,0.1,0.1,0.1,0.2c0.1,0.2,0.3,0.5,0.3,0.9
	c0,0.8,0.3,1.4,0.5,2c0.1,0.3,0.1,0.7,0,0.9c-0.2,0.3-0.5,0.5-0.8,0.6C419,190.5,418.9,190.5,418.8,190.5z M420.8,221.9L420.8,221.9
	c0.2,0,0.4,0,0.5,0.1c0,0,0.1,0.1,0.2,0.1c0.2,0.1,0.6,0.4,0.6,0.9c0,0.7-0.3,1.3-1.1,1.5c-0.1,0-0.1,0-0.2,0.1c0,0-0.1,0-0.2,0
	c-0.6,0-1.1-0.7-1.1-1.2C419.4,222.4,420.1,221.9,420.8,221.9z M419.8,231.6c0-0.1,0-0.4,0-0.4c0-0.3,0.1-0.6,0.1-0.9
	c0.1-0.7,0.3-1.4,0.5-2.2c0.1-0.3,0.2-0.6,0.3-0.8c0.3-0.4,0.7-0.6,1-0.6h0.2c0.5,0.2,0.9,0.6,0.8,1.2l-0.1,0.4
	c-0.1,0.6-0.2,1.1-0.3,1.6l-0.1,0.3c-0.2,0.6-0.3,1.1-0.4,1.6c-0.1,0.4-0.5,1-1,1h-0.1l0,0c-0.4,0-1-0.3-1-1.1
	C419.8,231.8,419.8,231.7,419.8,231.6z M420.9,247.9h-0.2c-0.5-0.1-0.9-0.6-0.9-1.1c0.1-0.8,0.4-1.4,0.7-2c0.3-0.4,0.6-0.6,0.9-0.6
	c0.4,0.1,0.7,0.2,0.8,0.4c0.2,0.2,0.2,0.5,0.2,0.9v0.1c0,0.7-0.2,1.4-0.8,1.9C421.5,247.8,421.2,247.9,420.9,247.9z M426.7,283.5
	c0,0.2,0,0.4,0,0.5s0,0.3-0.1,0.5c-0.5,0.9-1.1,1.7-1.6,2.7l-0.4,0.6c-0.3,0.5-0.9,0.8-1.5,0.8c-0.2,0-0.4,0-0.5-0.1
	c-0.4-0.2-0.6-0.5-0.7-0.8c-0.1-0.4,0-0.8,0.1-1.1c0.9-1.4,1.5-2.4,2.2-3.3c0.7-1,1.1-1.3,1.5-1.3c0.3,0,0.6,0.2,0.8,0.4
	C426.8,282.6,426.8,283,426.7,283.5z M429.3,179.1c-0.2,0.5-0.7,0.7-1,0.8c-0.1,0-0.2,0.1-0.3,0.1l-0.1,0.1c-0.1,0-0.2,0-0.3,0
	c-0.2,0-0.4-0.1-0.5-0.3l-0.1-0.1l-0.3-0.3c-0.3-0.4-0.7-0.7-0.9-1.2c-0.2-0.3-0.2-0.7,0-1.2c0.1-0.2,0.3-0.7,0.8-0.9
	c0.1,0,0.3-0.1,0.4-0.1c0.8,0,1.5,0.6,1.9,1.1C429.3,178,429.4,178.6,429.3,179.1z M443,216.1c0,0.3,0,0.6-0.2,1
	c-0.1,0.4-0.5,0.6-0.7,0.7l-0.1,0.1l-0.1,0.1c-0.1,0.1-0.3,0.2-0.5,0.2h-0.1c-0.2,0-0.4-0.1-0.5-0.3l-0.1-0.1
	c0.1,0.4,0.2,0.8,0.3,1.4c0.1,0.4,0.2,1.1,0.2,1.7c0.1,1,0.1,1.4,0.2,1.5c0,0.1,0,0.1,0,0.2l-0.1,3.3c0,0.6,0,1.2-0.1,1.7l-0.6,6.5
	l-0.9,5.9c-0.1,1.3-0.4,2.5-0.7,3.5l-0.3,1.2c-0.1,0.6-0.2,1.2-0.4,1.7c-0.2,1-0.4,1.9-0.7,2.9c-0.2,0.8-0.5,1.5-0.7,2.4
	c-0.2,0.7-0.4,1.4-0.7,2.2l-0.2,0.9c-0.1,0.3-0.3,0.6-0.4,0.9c-0.1,0.2-0.2,0.4-0.3,0.6c-0.2,1.1-0.6,2.4-1.3,2.8
	c-0.1,0.1-0.4,0.1-0.5,0.1c-0.2,0-0.6-0.2-0.7-0.4c-0.2-0.3-0.1-0.6,0-1l0.4-1.9c0-0.2,0.1-0.5,0.2-0.7c0.1-0.2,0.2-0.5,0.2-0.7
	c0-0.3,0.1-0.7,0.1-1c0.1-0.9,0.4-1.7,0.6-2.6c0.2-0.7,0.3-1.4,0.5-2c0.1-0.8,0.3-1.6,0.5-2.4c0.2-0.9,0.4-1.6,0.5-2.4l0.4-2.4
	c0.1-0.5,0.1-1,0.2-1.4c0-0.4,0.1-0.8,0.1-1.1c0.2-1.6,0.4-3.4,0.7-5.1v-0.3c0.1-1.6,0.3-3.3,0.5-4.9c0-0.4,0-0.7-0.1-1.2
	s-0.1-1-0.1-1.4c0.1-1,0.2-1.8,0.3-2.8c0.1-1,0.2-1.9,0.4-2.8c0.1-0.5,0.1-1,0.2-1.4l0.1-1.4c0-0.9,0.1-1.1,0.2-1.2
	c0.1-0.2,0.4-0.3,0.6-0.3c0.3,0,0.5,0.1,0.6,0.4c0-0.5-0.1-1,0-1.5c0-0.4,0.2-0.7,0.4-1l0.1-0.2l0.1-0.3c0.1-0.2,0.3-0.4,0.6-0.4
	l0,0c0.2,0,0.4,0.1,0.6,0.3l0.2,0.2c0.1,0.1,0.1,0.1,0.1,0.2c0.2,0.2,0.3,0.4,0.4,0.7c0.1,0.3,0.1,0.6,0.1,0.9c0,0.1,0,0.2,0,0.3
	v0.1L443,216.1z M394,271.4c0.1-0.2,0.2-0.3,0.3-0.5c0,0.1,0,0.2-0.1,0.3C394.2,271.3,394.1,271.4,394,271.4L394,271.4z M408.1,193
	c-0.2-0.4-1.1-0.9-1.1-1.2c0.6-0.3,0.3-0.9,0.3-1.4c0-0.4-0.1-0.9,0.1-1.3c0.3-0.7,0.1-1.4,0.1-2c0-0.1,0-0.3,0-0.4
	c0-1.3-0.1-1.7,0-1.5c0.3,0.4,0.4,1.1,0.5,1.5c0,1,0.4,1.6,0.2,2.6c0.1,1.7,0.6,4.2,0.4,5.9c0,0.2-0.1,0.3-0.2,0.5l-0.1,0.1
	c-0.1,0-0.2,0-0.2-0.1c-0.2-0.3-0.3-0.6-0.1-0.9C408.6,194.2,408.4,193.6,408.1,193z M442.7,203.7c0.3,1.4,0,2,0,2.2
	c-0.1,0.4,0,0.9,0.1,1.4c0,0.1,0.1,0.7,0.2,1.3c0.5,2.8,0.9,3.1,1,3.2c0.2,0.2,0.8,0.2,0.9-0.3v-0.1c0-0.1,0.1-0.8,0-0.9
	c0-0.1-1.1-7.4-1.5-7.9c0-0.1-0.1-0.1-0.2-0.1l-0.4,0.2v0.1C442.7,202.8,442.6,203,442.7,203.7L442.7,203.7z M407.8,184.5
	c0.3,0,0.4-0.5,0.4-0.9c0-0.2,0-0.4,0-0.6c0,0,0-1.2-0.2-1.5c-0.1-0.3-0.2-0.3-0.3-0.3h-0.1c-0.1,0-0.2,0.1-0.3,0.2
	c-0.1,0.4,0.1,0.8,0.1,1.1c0,0.4,0.1,0.8,0,1.2c0,0.1,0,0.1,0,0.2c-0.1,0.2-0.2,0.5,0.2,0.7C407.7,184.5,407.8,184.5,407.8,184.5z
	 M406,185.4c-0.2,0-0.3,0.2-0.3,0.5c0,1,0.1,1.9,0.2,2.9v0.1c0,0.1-0.1,0.3,0,0.4s0.2,0.1,0.3,0.2l0,0c0.2,0,0.3-0.6,0.3-0.6
	c0-0.3-0.1-0.7-0.1-1.1v-0.4v-0.2l0,0V187c0-0.4,0-0.7,0-1.1C406.3,185.7,406.2,185.4,406,185.4z M407.7,178.8c-0.1,0.3,0,0.6,0,0.9
	c0,0.2,0.1,0.3,0.2,0.4l0.1,0.1l0.2,0.3l0.1-0.3c0-0.1,0.1-0.1,0.1-0.2c0.1-0.1,0.1-0.3,0.2-0.4c0-0.2,0-0.4,0-0.6
	c0-0.1,0-0.1,0-0.2v-0.2c-0.4-2.5-1.5-2.5-0.8-0.2C407.7,178.5,407.7,178.7,407.7,178.8z M405.2,197.5c0,0.2,0.1,0.3,0.3,0.5
	c0.4,0.3,0.5,0.6,0.4,1.1c-0.1,0.2-0.1,0.5-0.1,0.7c0,0.1,0,0.3,0.1,0.3c0,0,0.1,0.1,0.3,0.1l0,0c0.1,0,0.3-0.1,0.4-0.3
	c0.4-1.4,0.6-2.7,0.7-3.9v-0.1c0-0.1,0-0.2-0.1-0.3c-0.2-0.1-0.3-0.3-0.6-0.4c-0.2-0.1-0.3,0-0.4,0.1c-0.1,0.1-0.1,0.2-0.1,0.4
	c0,0.5-0.2,1-0.5,1.3C405.3,197.2,405.2,197.4,405.2,197.5z M408,173.5L408,173.5c0.3-0.1,0.3-0.2,0.3-0.6c0-0.2,0-0.4-0.1-0.7l0,0
	l-0.1-0.2c-0.2-0.3-0.4-0.5-0.6-0.5l0,0c-0.1,0-0.2,0.1-0.2,0.3C407.4,172.1,407.7,173.5,408,173.5z M411.2,175.2
	c0-0.2-0.1-0.4-0.2-0.7l-0.3-1.3c-0.5-0.8-1.4-1.1-1.9-0.4c0,0.9,0.5,1.2,0.8,1.7c0.1,0.3,0.3,0.5,0.4,0.8c0.1,0.3,0.2,0.5,0.3,0.7
	c0.5,0.9,1.2,2.7,1.4,2.4l-0.5-2.6L411.2,175.2z M412.3,165.7c0.1,0.1,0.1,0.2,0.2,0.3c0.1,0.1,0.2,0.3,0.3,0.4
	c0.1,0.1,0.2,0.1,0.3,0.1c0.1,0,0.3-0.1,0.4-0.2c0.1-0.1,0.2-0.3,0-0.6c-0.2-0.2-0.3-0.4-0.5-0.6c-0.4-0.5-0.9-1-1.4-1.4
	c-0.1-0.1-0.2-0.2-0.3-0.4c-0.3-0.4-0.6-0.7-1.2-0.8h-0.1c-0.1,0-0.2,0.1-0.2,0.1c-0.1,0.2,0,0.3,1.1,1.5
	C411.6,164.8,412,165.3,412.3,165.7z M410.1,168.6c0.2,0.1,0.3,0.3,0.5,0.4c0.1,0.1,0.2,0.1,0.2,0.1c0.1,0,0.1,0,0.2-0.1
	c0.2-0.1,0.2-0.4,0.1-0.6s-0.3-0.4-0.5-0.5c-0.2-0.2-0.3-0.3-0.4-0.5c-0.2-0.5-0.4-0.8-0.7-1.1c-0.2-0.2-0.5-0.2-0.7,0
	c-0.2,0.2-0.1,0.4,0,0.5C409.1,167.7,409.6,168.1,410.1,168.6z M405.1,196.4L405.1,196.4h0.2l0,0c0.1-0.1,0.2-0.1,0.2-0.2
	c0.1-0.6,0.1-1.1,0.2-1.4c0-0.1,0-0.3-0.1-0.4v-0.1c0-0.1-0.1-0.2-0.2-0.2s-0.3,0.1-0.3,0.2c0,0.2,0,0.4-0.1,0.6
	c-0.1,0.3-0.1,0.6-0.1,0.9v0.1c0,0.1,0,0.2,0,0.3S405,196.3,405.1,196.4C405,196.4,405.1,196.4,405.1,196.4z M446.3,229.4
	c0-1.6,0-3.4-0.1-4.1c0,0,0-0.9-0.1-1.2c-0.2-0.5-1,1.2-1,1.2c-0.1,0.3-0.2,0.7-0.2,1c-0.2,0.7,0,1.4-0.1,2.1c0,0.3,0,0.7-0.1,1.2
	c-0.1,1.8,0,6.3,0.1,6.4c0.1,0,0.6-0.4,0.6-0.4c0.6-1,0.8-2.3,0.8-2.9C446.3,231.9,446.3,230.7,446.3,229.4z M404.2,206.5
	L404.2,206.5c0.5,0,0.8-0.5,0.9-1.4c0.1-0.6,0-1.1-0.1-1.5c0-0.2-0.1-0.4-0.1-0.7c0-0.1-0.1-0.4-0.3-0.4c-0.1,0-0.2,0.1-0.2,0.1
	c-0.1,0.1-0.2,0.2-0.2,0.4c-0.1,0.5-0.2,1-0.3,1.5l-0.1,0.6c-0.1,0.4,0,0.9,0.2,1.1C404,206.4,404.1,206.5,404.2,206.5z
	 M403.4,210.6c0.1,0,0.2,0,0.2,0c0.3,0,0.4-0.2,0.4-0.3c0-0.3,0.1-0.3,0.4-0.3h0.1c0.2,0,0.4,0,0.5,0c0.4-0.2,0.3-0.6,0.3-0.8
	c0-0.3-0.2-0.4-0.4-0.4c-0.1,0-0.1,0-0.2,0c-0.1,0-0.1,0.1-0.2,0.1s-0.2,0.1-0.3,0.1c-0.1,0-0.1,0-0.1,0c-0.1,0-0.3,0-0.3-0.4
	c0,0,0-0.2,0.1-0.3c0.1-0.4,0.1-0.5,0.1-0.6c0-0.1-0.1-0.2-0.2-0.2c0,0,0,0-0.1,0h-0.1h-0.1c0,0-0.1,0.1-0.2,0.1
	c-0.3,0.6-0.5,1.8-0.4,2.5C403.2,210.5,403.3,210.6,403.4,210.6z M402.4,218.7c0.7-0.1,0.6-1.7,1.3-2.3c0.2-0.2,0.3-0.6,0.4-0.9
	c0-0.7,0-1.4-0.3-2l-0.1-0.2l-0.2,0.2C402.5,214.4,401.1,217.1,402.4,218.7C402.3,218.7,402.4,218.7,402.4,218.7z"/>
<path d="M224.4,157.2c-0.3,0-0.6-0.1-0.9-0.4c-0.2-0.2-0.2-0.4-0.2-0.6c0.4-1.6,1.7-3,3.3-4.3c0.5-0.5,1.1-1,1.5-1.5
	c0.1-0.1,0.3-0.2,0.5-0.2s0.4,0.1,0.5,0.2c0.2,0.2,0.3,0.6,0.1,0.9C229.2,151.3,226.4,157.2,224.4,157.2z M441.6,186.7
	c-0.3-0.1-1.3-1.2-1.3-1.7c0-0.2-0.2-0.4-0.3-0.5c-0.8-0.8-1.1-1.9-1.7-2.8c-0.2-0.2-0.3-0.5-0.5-0.8c-0.5-1.1-1-2.2-1.8-3.2
	c-0.2-0.2-1.5-2.5-1.6-2.8c-0.4-1-0.7-1.6-1.4-2.3c-0.2-0.2-0.9-0.7-1-0.9c-0.5-1.1-1.1-1.7-1.9-2.4c-0.6-0.4-1-0.9-1.4-1.4
	c-0.6-0.7-1.2-1.5-1.8-2.2c-0.7-0.7-1.6-2.4-2.2-3c-1.4-1.4-2.4-1.6-3.8-3c-0.4-0.4-0.8-0.8-1.2-1.1c-1-0.8-1.9-1.6-2.9-2.4
	c-0.4-0.4-0.8-0.9-1.4-1c0,0-0.1,0-0.1-0.1c-0.7-1.1-1.9-1.4-2.6-2.3c-0.4-0.5-1.1-0.8-1.6-1.1c-0.3-0.1-0.6-0.2-0.8-0.4
	c-0.2-0.3-0.5-0.5-0.7-0.8c-0.7-1-1.4-0.5-2.5-0.8c-0.4-0.1-0.9-0.2-1.2-0.6c-0.1-0.1-0.3-0.2-0.4-0.3c-0.4-0.1-0.6-0.3-0.7-0.6
	s-0.3-0.5-0.4-0.7c-0.1-0.3-0.4-0.4-0.7-0.3c-0.4,0.1-0.7,0.1-0.9-0.4c-0.1-0.2-0.2-0.3-0.4-0.3c-0.4,0-0.7-0.2-1-0.4
	c-0.2-0.1-0.4-0.3-0.2-0.5c0.3-0.3,0.1-0.5-0.1-0.8c-0.3-0.3-0.6-0.6-1-0.5c-0.3,0.1-0.5,0.1-0.8,0.2c-0.4,0.2-0.7,0.1-0.9-0.3
	c-0.2-0.5-0.8-0.5-1.2-0.6c-0.3-0.1-0.7-0.2-0.9-0.5c-0.2-0.4-0.6-0.5-1-0.7c-0.9-0.3-1.6-0.7-2.4-1.3c-0.8-0.6-1.7-0.9-2.6-1.2
	c-0.2-0.1-0.5-0.1-0.6-0.2c-0.5-0.3-1-0.7-1.4-1c-0.5-0.3-1.1-0.1-1.4-0.5c-0.4-0.3-0.8-0.5-1.4-0.5c-0.2,0-0.3-0.1-0.5-0.2
	c-0.5-0.3-1-0.5-1.4-0.7c-0.8-0.3-3.3-2.4-4.2-2.1c-0.2,0.1-0.4,0-0.5-0.1c-0.9-0.3-2-1.2-2.8-1.5c-1-0.5-1.9-0.9-2.9-1.2
	c-0.7-0.3-1.3-0.8-1.9-1.2c-0.6-0.3-1.3-0.4-1.8-0.5c-0.8-0.2-1.5-0.4-2.3-0.6c-0.1,0-0.3-0.1-0.4-0.2c-0.6-0.5-1.4-0.7-2.1-1
	c-0.9-0.3-1.7-0.5-2.6-0.7c-0.8-0.2-1.4-0.4-2.1-0.7c-1.4-0.5-2.8-0.9-4.2-1.2c-0.9-0.2-1.8-0.4-2.7-0.6c-2.2-0.6-4.4-1-6.7-1.3
	c-1.4-0.2-2.7-0.6-4.2-0.9c-0.2,0-0.4-0.2-0.7-0.2c-1.4-0.1-2.8-0.4-4.2-0.3c-0.5,0-1.1,0-1.5-0.2c-0.2-0.1-0.4-0.1-0.7-0.1
	c-2.2-0.1-4-0.7-6.2-0.9c-1.2-0.1-2.2-0.2-3.4-0.2c-1.2,0-2.2-0.3-3.4,0.2c-0.2,0.1-0.5,0-0.7,0c-0.6,0.1-1.2-0.6-1.7-0.1
	c-0.2,0.2-0.5,0.1-0.8,0.1c-0.4,0-0.7-0.4-1.1-0.4c-0.2,0-0.4,0.1-0.5,0.1c-1.1-0.4-2.1,0.1-3.2,0c-0.2,0-0.5,0-0.7,0
	c-0.8,0.2-1.4-0.7-2.2-0.3c-0.7,0.4-1.5,0.2-2.3,0.2c-0.8,0-1.5,0-2.3,0.2c-0.7,0.2-1.4,0.3-2,0c-0.2-0.1-0.5,0-0.8-0.1
	c-0.1,0-0.2,0-0.3,0c-0.6,0.3-1-0.3-1.5-0.1c-0.5,0.1-1,0.3-1.4,0.2c-0.8-0.2-1.5-0.2-2.3,0c-0.3,0.1-0.6-0.1-0.9-0.3
	c-0.3-0.2-0.6-0.3-0.8,0.1c-0.1,0.4-0.5,0.5-0.8,0.5c-1.1,0-2.1,0.1-3.2,0.3c-0.2,0-0.5,0-0.7-0.1c-1-0.3-1.8-0.1-2.6,0.4
	c-0.2,0.1-0.4,0.3-0.6,0.1c-0.4-0.2-0.7-0.2-0.9,0.2c-0.2,0.2-0.5,0.3-0.8,0.2c-0.4-0.1-0.8-0.2-1.2-0.3c-0.3-0.1-0.4-0.4-0.2-0.6
	c0.1-0.1-1.7,0.8-1.9,1.2c-0.1,0.3-0.3,0.4-0.6,0.4c-0.7,0-1.3,0.1-1.7,0.7c-0.3,0.4-0.8,0.5-1.3,0.5s-0.9,0-1.2-0.5
	c-0.1-0.2-0.3-0.2-0.5-0.1c-0.5,0.1-1,0.2-1.2,0.8c-0.1,0.3-0.4,0.4-0.7,0.6c-0.6,0.2-1.5,0.4-1.7,0.5c-0.4,0.1-0.8,0.2-1.2,0.3
	c-0.2,0-0.4,0.1-0.6,0.2c-0.6,0.6-1.4,0.7-2,0.6s-1.3,0.1-1.7,0.4c-0.7,0.4-1.4,0.5-2.1,0.7c-0.7,0.2-1.3,0-1.8-0.5
	c-0.2-0.2-1.9,0.4-2,0.2c0-0.1-0.2-0.1-0.4-0.1s-0.3,0.1-0.4,0.3c-0.1-0.1-0.8-0.5-1-0.3c-0.2,0.3-2.3,1.8-2.7,1.7s-0.9-0.2-1.3-0.2
	c-0.2,0-0.3,0.1-0.4,0.3c0,0.2-0.5,0.7-1.1,0.7c-0.8,0-1.4,0.2-1.6,1.1c-0.2,0.5-0.5,0.5-1,0.2c-0.3-0.1-0.5-0.3-0.5-0.6
	c-0.1-0.2-0.2-0.2-0.3-0.1c-0.3,0.2-0.9,0.7-1,0.5c-0.2-0.5-3.8,2.3-4.2,2c-0.3-0.2-2.8,2.1-3,2.4c-0.2,0.2-0.3,0.4-0.7,0.4
	c-0.6-0.1-0.9,0.2-1.3,0.5c-0.6,0.5-1.6,1.6-1.7,1.7c-1,0.9-2,1.5-3.3,1.6c-0.6,0.1-1.1,0.1-1.3,0.7c-0.1,0.2-0.3,0.3-0.5,0.4
	c-0.5,0.2-0.9,0.5-1.3,0.8c-0.3,0.3-0.6,0.4-0.9,0c-0.1-0.2-0.5-0.1-0.6,0c-0.5,0.6-1.3,0.8-1.6,1.4c-0.3,0.5-0.8,0.9-1.4,1
	c-0.4,0.1-3.3,3.4-3.4,3.9c-0.1,0.3-0.4,0.4-0.7,0.6c-0.5,0.2-1.2,0.3-1.3,1c0,0.1-0.2,0.2-0.3,0.2c-0.6,0.2-1,0.6-1.2,1.2
	c-0.2,0.5-0.7,0.5-1,0.9c-1.2,1.2-2.5,2.2-3.6,3.5c0,0-0.2,0.1-0.2,0c-0.1,0-0.1-0.2-0.1-0.2c0-0.1,0.1-0.3,0.1-0.4
	c0.6-0.8,1.1-1.6,1.6-2.4c0.3-0.5,0.6-1,1-1.4c0.2-0.3,0.4-0.6,0.1-1c-0.2-0.2,0-0.5,0.2-0.8c0.2-0.3,0.3-0.6,0.3-0.9v-0.1
	c-0.1,0-0.2-0.1-0.2-0.1c-0.4,0.2-1.6,1.7-1.9,1.7c-0.1,0,0-0.5,0-0.5c0.4-0.5,0.9-2.1,1.6-2.4c0.1-0.1,0.2-0.3,0.4-0.4
	c0.3-0.3,0.7-0.8,1-1.2c0.2-0.2,0.4-0.5,0.5-0.8c0.5-0.9,1-1.7,1.5-2.5c0.2-0.3,0.5-0.6,0.5-1c0-0.2-0.1-0.3-0.3-0.4
	c-0.1-0.1-0.3,0-0.3,0.1c-0.2,0.6-0.6,1-1.1,1.3c-0.7,0.6-1.2,1.3-1.4,2c-0.2,0.5-0.3,0.9-0.8,1.2c-0.3,0.2-1.1,1.2-1.5,1.7
	c-0.1,0.2-0.2,0.4-0.4,0.2c-0.1-0.1-0.1-0.2,0-0.3c0.1-0.3-0.3-0.5-0.3-0.8c0-0.2-0.3-0.2-0.4-0.1c-0.1,0.2-0.2,0.3-0.3,0.5
	c-0.3,0.3-1.2,1.3-1.4,1c-0.5-0.6-0.4-1.4-0.1-2.2c0.2-0.3,0-1,0-1.4c0-0.5,0.1-1.1,0.2-1.5c0.2-1.1,0.7-2.1,0.5-3.2
	c-0.1-0.4,0.8-1.3,0.9-1.6c0.5-1.4,1.9-4.2,2.3-5.7c0.1-0.3,0.2-0.6,0.2-0.9c0.1-0.5,0-0.9-0.2-0.8c-0.3,0.1-0.5,0.3-0.6,0.6
	c-0.2,0.5-0.4,1-0.6,1.4c-0.1,0.2-0.1,0.3-0.2,0.5c-0.1,0.2-0.2,0.3-0.4,0.2c-0.1-0.1-0.2-0.2-0.2-0.3c0.1-0.8,0.6-1.8,1-2.4
	c0.3-0.5,0.7-0.9,0.5-1.5c-0.1-0.2,0.4-0.9,0.5-1.2c0.7-1.6,2.2-4,3-5.6c1-2,2-4,3-6c1-1.9,2.2-3.7,3.8-5.2c0.8-0.8,1.6-1.3,2-2.2
	c0.2-0.5,0.5-0.8,0.9-1.2c1.9-2.2,3.9-4.5,5.9-6.8c1.2-1.4,2.6-2.5,4.1-3.8c1-0.9,2-1.4,2.9-2.3c0.1-0.1,0.1-0.3,0.2-0.3
	c2-1.4,3.8-2.8,5.8-4.2c1.1-0.7,2.1-1.4,3.1-2.2c0.8-0.6,1.5-1.2,2.4-1.6c1.6-1,3.2-1.4,4.9-2.3c1.5-0.8,3.2-1.5,4.7-2.2
	c0.8-0.4,1.5-0.7,2.3-1c0.9-0.4,1.6-0.7,2.6-0.9c0.8-0.1,1.4-0.5,2.2-0.7c1.1-0.3,2.2-0.6,3.3-0.9c1.3-0.4,2.5-0.5,3.8-0.9
	c0.2-0.1,0.5-0.2,0.7-0.1c0.8,0.2,1.4,0,2-0.3c0.7-0.3,1.4-0.4,2.2-0.4c0.8,0,1.5-0.2,2.3-0.4c0.9-0.2,1.7-0.3,2.6-0.4
	c1.6-0.2,3.1-0.8,4.7-1c0.6-0.1,1.2-0.1,1.7-0.1c0.7,0,1.4-0.1,2.1-0.1c0.8,0,1.6,0,2.4,0c0.2,0,5.6-0.2,5.8-0.2
	c2.2-0.4,3.4-0.1,5.6,0.3c0.1,0,0.3,0.1,0.4,0c2.2-0.1,0.2,0.4,2.4,0.5c0.2,0,0.4-0.4,0.5-0.5c1.4-0.4,2.8-0.2,4.2,0
	c0.2,0,0.4,0,0.5,0.1c1,0.8,2.1,0.5,3.3,0.8c0.5,0.1,1,0.1,1.4,0.2c0.5,0.1,0.9,0.7,1.4,0.1c0.8,0.1,1.4,0.2,2.2,0.4
	c0.5,0.1,0.9,0.3,1.4,0.3c3.2,0.2,6.3,0.8,9.5,1.4c0.8,0.2,1.6,0.5,2.4,0.7c2.3,0.7,4.5,1.3,6.9,1.8c0.6,0.2,1.1,0.6,1.7,0.4
	c0.3-0.1,0.5,0.5,0.9,0.6c0.6,0.2,1.1,0.5,1.5,0.6c1.4,0.4,2.6,1.1,3.9,1.5c1.4,0.5,2.6,0.7,4,1.3c2.2,0.9,0.3,1.6,2.2,0.9
	c0.3-0.1,0.5,0.1,0.8,0.2c1.1,0.5,2,1,3,1.6c1.9,1.3,5.7,2.9,7.6,4.2c0.8,0.6,1.5,1.1,2.4,1.6c1.8,1.2,3.8,2.3,5.6,3.5
	c1.7,1.2,3.7,3.6,5.5,4.6c1.2,0.7,1.9,1.4,3.2,1.7c0.2,0.1,0.4,0.2,0.6,0.4c0.6,0.5,1.2,0.9,1.7,1.4c1,1.1,2.1,1.8,3.2,2.7
	c1.2,0.9,2.1,1.8,3.1,2.8c1.6,1.6,3.4,3.2,4.9,4.9c0.3,0.3,0.6,0.7,1,0.9c0.7,0.4,1.3,1,1.7,1.5c0.4,0.5,0.9,0.9,1.3,1.3
	c0.9,0.8,1.7,1.6,2.4,2.5c1.1,1.4,2.1,2.6,3.3,3.8c1.5,1.4,2.8,3.2,4,4.9c0.3,0.4,0.6,0.9,0.9,1.3c2,2.6,3.7,5.4,5.1,8.4
	c0.8,1.7,1.7,3.3,2.6,5c0.7,1.4,1.4,2.8,2,4.2c0.4,1,0.9,1.9,1.4,2.9c0.9,1.5,1.4,3.3,2.1,4.9c1,2.1,1.9,4.3,2.9,6.5
	c0.3,0.6,0.5,1.2,0.8,1.7c1.1,2.5,1.7,5.1,2.4,7.8c0,0.1,0,0.1-0.1,0.2c-0.1-0.1-0.1-0.1-0.2-0.2c-0.4-1.1-0.9-2.2-1.3-3.3
	c-0.9-2.5-2.1-4.8-3.2-7.2c0-0.1-0.1-0.2-0.1-0.2c-0.1-0.1-0.2-0.1-0.4-0.1c0,0-0.1,0.1-0.1,0.2c-0.1,0.3,0,0.6,0.1,0.9
	c0.3,0.7,0.6,1.4,0.5,2.1c0.6,1.1,0.7,2.3,1.2,3.5c0.8,1.6,2.3,5.6,3.1,7.2c0.1,0.2,0.1,0.4,0.1,0.5c0,0.1-0.1,0.2-0.2,0.2
	c-0.1,0-0.2,0-0.2,0c-0.2-0.4-0.5-0.9-0.7-1.3c-0.2-0.7-0.7-1.1-1.3-1.4c-0.3-0.2-0.4-0.3-0.2-0.6c0.1-0.3-1.2-3-1.3-3.3
	c-0.3-0.8-0.7-1.5-1-2.3c-0.2-0.4,0-0.6-0.4-0.5c-0.3,0-0.5-0.2-0.6-0.4c-0.3-0.4-0.3-1.1-0.7-1.4c-0.3-0.3-0.8-0.6-1.2-0.8
	c-0.3-0.1-0.4-0.5-0.7-0.7l-0.1-0.3c-0.1-0.6-0.5-1-0.9-1.4c-0.2-0.2-0.3-0.3-0.5-0.5l-0.1-0.1c-0.2-0.3-0.4-0.6-0.8-0.7l-0.2-0.1
	l-0.1,0.2c-0.3,0.5,0,0.9,0.2,1.1c0.1,0.1,0.1,0.2,0.1,0.2c0.1,0.2,0.1,0.4,0.3,0.5c0.1,0.1,0.3,0.3,0.4,0.4
	c0.3,0.4,0.6,0.8,1.3,0.8h0.1c0,0.3,0.1,0.5,0.2,0.7c0.6,1,1.3,1.9,1.8,2.9c0.1,0.2,0.3,0.4,0.4,0.7c0.6,1.4,1.5,2.4,2,3.9
	c0,0.2,1.1,2.6,1.2,2.7c0.6,0.6,1,1.3,1.2,2c0.1,0.3,0.2,0.5,0.3,0.7c0.9,1.3,1.4,2.8,1.9,4.2c0.2,0.5,0.4,1,0.5,1.5
	C441.9,185.4,441.8,186.8,441.6,186.7z M431,159.8c0,0.5,0.1,1.1,0.3,1.5c0.2,0.5,0.7,0.7,0.9,0.8c0,0,0.1,0,0.1,0.1l0.4,0.2
	c0.1,0.1,0.2,0.1,0.3,0.1s0.2,0,0.3-0.1c0.2-0.1,0.4-0.3,0.4-0.5l0.1-0.4l0.1-0.2l0.1-0.2c0.1-0.3,0.2-0.6,0.2-1
	c0-1-0.5-1.6-1.4-1.8h-0.2h-0.1c-0.2,0-0.3,0.1-0.5,0.2l-0.1,0.1l-0.1,0.1C431.4,159,431,159.3,431,159.8z M306.2,78.9
	c0,0.6,0.4,1.1,0.7,1.3c0.3,0.2,0.7,0.4,1.2,0.4h0.1c1.4-0.1,2.7-0.3,4.1-0.5l0.5-0.1c0.3,0,0.5-0.2,0.6-0.2l0.5-0.3
	c0.2-0.1,0.3-0.3,0.3-0.6c0-0.2-0.1-0.5-0.3-0.6l-0.5-0.3c-0.1-0.1-0.4-0.3-0.8-0.4c-0.7-0.1-1.4-0.1-2-0.2h-0.4l-0.8-0.1
	c-0.1,0-0.2,0-0.3,0h-0.5c-0.4,0-0.9,0-1.4,0.3C306.6,77.9,306.2,78.5,306.2,78.9z M287.3,80.8c0,0.2,0.1,0.4,0.3,0.5l0.8,0.4
	c0,0,0.1,0,0.1,0.1c0,0,0.2,0.1,0.3,0.1c0.2,0,0.3,0,0.5,0c0.8,0,1.4-0.3,1.9-0.5c0.5-0.2,0.7-0.7,0.8-1v-0.1c0-0.2,0-0.4-0.1-0.5
	l-0.1-0.1c-0.3-0.5-0.8-0.6-0.9-0.6c-0.3-0.1-0.5-0.1-0.7-0.1c-0.8,0-1.4,0.2-2.1,0.7c-0.1,0.1-0.1,0.1-0.3,0.2l-0.3,0.3
	C287.4,80.3,287.3,80.6,287.3,80.8z M266.3,86.9v0.2c0,0.2,0.1,0.3,0.2,0.4l0.1,0.1c0.2,0.3,0.6,0.4,1,0.4c0.5,0,1.1-0.2,1.7-0.3
	c0.2,0,0.3-0.1,0.4-0.1c2.4-0.5,4.1-0.9,6.2-2l1-0.3c1.1-0.3,2-0.6,3-1l0.2-0.1c0.7-0.2,1.4-0.5,1.7-1.2c0.2,0.1,0.3,0.1,0.6,0.1
	h0.1l0.3-0.1c0.2-0.1,0.4-0.2,0.6-0.3v0.1c0.1,1.2,0.8,1.4,1.4,1.4c0,0,0.1,0,0.2,0c0.9,0,1.4-0.7,1.5-1.1c0.3-0.4,0.7-1,0.7-1.7
	c0.3-1-0.3-1.4-0.6-1.4c-0.2-0.1-0.4-0.2-0.7-0.2c-0.2,0-0.4,0-0.6,0.1c-0.3,0.1-0.6,0.2-1,0.3c0,0-0.1,0-0.1,0.1
	c-0.1-0.2-0.3-0.3-0.4-0.4c-0.2-0.1-0.5-0.2-0.9-0.2h-0.2c-0.1,0-0.4,0.1-0.4,0.2c-0.4,0.3-0.8,0.7-1.3,1.1
	c-0.1,0.1-0.2,0.2-0.2,0.3c-0.2-0.1-0.5-0.2-0.9-0.2c-0.7,0-1.4,0.3-1.6,0.4c-0.6,0.3-1.3,0.5-2,0.7c-0.8,0.2-1.4,0.5-2.2,0.8
	c-0.9,0.2-1.7,0.5-2.5,0.7c-0.7,0.3-1.4,0.5-2.1,0.6c-0.9,0.2-1.7,0.6-2.2,0.8C267.1,85.4,266.4,86,266.3,86.9z M255.3,113.2
	c-0.3,0-0.6,0.1-0.8,0.2h-0.1c0,0-0.1,0-0.2,0c-0.6,0-1.1,0.3-1.4,0.7c-0.4,0.5-0.5,1.1-0.2,1.6c0.2,0.5,0.7,0.8,1.3,0.8
	c0.2,0,0.4-0.1,0.6-0.2c0.3-0.1,0.5-0.3,0.7-0.4l0,0c0.5,0,0.9-0.1,1.4-0.3c0.5-0.2,1-0.4,1.4-0.5l0.8-0.3c0.4-0.1,0.8-0.3,1.1-0.4
	c1-0.3,1.9-0.6,2.9-1.1c0.5-0.2,0.9-0.4,1.4-0.4c1.1-0.1,1.9-0.5,2.9-0.9c0.7-0.3,1.4-0.6,2-0.7c0.8-0.2,1.3-1,1.2-1.8
	c-0.1-0.7-0.6-1.2-1.3-1.3h0.1c0.9-0.1,1.8-0.2,2.7-0.8c0.1-0.1,0.2-0.1,0.4-0.1c0.4-0.1,0.8-0.2,1.3-0.6c0.2-0.1,0.9-0.2,1.1-0.2
	c1.1,0,2-0.4,2.9-0.7l1.8-0.6c1-0.3,1.8-0.6,2.8-0.9c0.2-0.1,0.5-0.1,0.9-0.2c0.5-0.1,1-0.2,1.5-0.4c1.1-0.4,2.1-0.7,3.2-1.1
	l1.2-0.3c0.8-0.2,1.4-0.4,2.1-0.4c0.2,0,0.3,0,0.5,0h0.1c0.2,0,0.5,0.5-0.6,0.6h-0.1c-1.9,0.3-3.9,0.9-6.4,1.7
	c-0.8,0.3-1.4,0.5-2.2,0.6c-1,0.1-2,0.5-3.3,1.3c-0.5,0.3-1,0.6-1.4,0.6c-1,0.1-1.6,0.7-2,1.1c-0.3,0.3-0.5,0.8-0.4,1.2
	c0.1,0.5,0.4,1,0.9,1.2c0.3,0.1,0.6,0.2,0.8,0.2c0.3,0,0.5-0.1,0.7-0.2c0.3-0.2,0.7-0.3,1.2-0.3c0.4-0.1,0.9-0.2,1.4-0.4
	c0.6-0.2,1.2-0.4,1.8-0.5c0.7-0.2,1.4-0.3,2.2-0.6c0.3,0.2,0.7,0.3,1.1,0.3c0.2,0,0.4,0,0.6-0.1c0.1,0,0.3,0,0.4,0
	c0.6,0,1.2-0.2,1.6-0.5c0,0,0.1,0,0.2,0c0.8-0.1,1.6-0.2,2.4-0.2l0.7-0.1c0.7-0.1,1.3-0.1,1.9-0.1c1.2,0,1.7-0.7,2.2-1.3
	c0.3-0.3,0.5-0.8,0.4-1.2c0.5-0.2,1-0.3,1.4-0.4s0.9-0.3,1.4-0.5c0.2-0.1,0.3-0.2,0.4-0.2c0.4-0.1,1.2-0.4,1.6-1.2l0.2-0.1
	c0.2-0.1,0.3-0.1,0.5-0.2c0.3-0.1,0.6-0.2,1-0.3c0.2-0.1,0.6-0.3,0.8-0.6c0.3,0.1,0.6,0.2,0.9,0.2c0.2,0,0.4,0,0.5,0
	c1.4-0.3,3-0.5,4.4-0.8l1.2-0.2c0.5-0.1,1-0.4,1.3-0.8c0-0.1,0.1-0.1,0.1-0.2l0,0c0.8,0.3,1.3,0.4,1.8,0.4c0.7,0,1.3-0.2,2-0.7
	c0.3-0.2,0.7-0.3,1.2-0.3c0.9,0,1.8,0,2.9-0.6c0.3,0.1,0.6,0.2,0.9,0.2c0.1,0,0.3,0,0.5,0c0.3,0,0.5-0.1,0.8-0.1l0,0
	c0.4,0,0.7,0,1.1,0c1.1,0,2.1-0.1,3.3-0.2l0.6-0.1c0.4,0,0.9-0.2,1.4-0.4c0.4-0.2,0.7-0.4,0.8-0.8c0.1,0.1,0.2,0.2,0.4,0.2
	c0.6,0.2,1.2,0.4,1.6,0.5c1,0.2,2,0.4,3.2,0.4c0.5,0,1,0.1,1.4,0.2h0.2c0.2,0,0.4,0.1,0.6,0.1h0.1h0.2c0.2,0,0.4,0,0.6-0.1
	c0.4-0.1,0.7-0.4,0.9-0.7c0.2-0.3,0.2-0.6,0.2-1l0,0c0.3,0,0.7-0.2,1-0.5c0.2-0.2,0.2-0.5,0.2-0.6v-0.2c0-0.1-0.1-0.3-0.1-0.4
	s-0.2-0.3-0.4-0.5l-0.2-0.1c-0.5-0.3-1-0.6-1.6-0.6c-0.1,0-0.2,0-0.4,0s-0.5,0.2-0.7,0.4c-0.4-0.4-0.8-0.8-1.1-1.1
	c-0.3-0.2-0.6-0.4-1-0.4c-0.2,0-0.4,0-0.6,0.1c-0.1,0-0.2,0-0.2,0.1c-0.3-0.1-0.6-0.2-0.9-0.2l-0.3-0.1l-0.3-0.1
	c-0.5-0.1-1.1-0.2-1.5-0.4c-0.1,0-0.3,0-0.4,0c-0.4,0-0.8,0.1-1.1,0.3c-0.4,0.2-0.7,0.5-0.8,1c0,0.1,0,0.1,0,0.2
	c-0.2-0.3-0.5-0.6-0.9-0.7h-0.2c-0.5,0-0.9,0.2-1.2,0.6c-0.1,0.1-0.2,0.2-0.3,0.4c-0.3-0.1-0.7-0.1-1-0.1h-0.2c-0.2,0-0.4,0-0.6,0
	h-0.2c-0.5,0-1,0-1.4-0.1c-1-0.3-2.1-0.4-3.4-0.4h-1.1c-0.9,0-1.8,0-2.8,0.1c0.1-0.4,0-0.8-0.3-1.1s-0.7-0.5-1.1-0.5
	s-0.7,0.1-0.9,0.2c-0.7,0.3-0.9,1-0.8,1.4c0,0.1,0,0.1,0,0.2l0,0c-0.8,0.1-1.4,0.3-2.2,0.4c-0.3,0.1-0.5,0.1-0.8,0.1
	c-0.2,0-0.4,0-0.7,0.1c-0.1,0-0.1,0-0.2,0c-0.3-0.4-0.8-0.7-1.3-0.7c-0.4,0-0.8,0.2-1,0.3c-0.4,0.2-0.8,0.3-1.3,0.3
	c-0.1,0-0.5,0-0.6,0c-0.5,0-0.9,0.1-1.3,0.2c-0.4,0.1-0.6,0.1-0.9,0.1h-0.2c-0.2,0-0.3,0.1-0.5,0.2l-0.1,0.1
	c-0.2,0.2-0.5,0.3-0.9,0.3c-0.3,0-0.6,0-1-0.1c-0.1,0-0.3,0-0.4,0c-0.3,0-0.6,0-0.9,0.1l-0.3,0.1c-0.7,0.2-1.4,0.5-2.1,0.7l-0.4,0.1
	c0,0-0.1,0-0.2,0c-0.3,0-0.7,0-1-0.1c-0.3,0-0.6-0.1-0.9-0.1l0,0c-1,0.1-1.8,0.4-2.7,0.7l-0.5,0.2c-0.5,0.2-1.1,0.4-1.5,0.4
	c-1.1,0.2-1.8,0.4-2.7,0.8c-0.2,0.1-0.3,0.1-0.3,0.1l0,0c-0.2-0.1-0.5-0.2-0.8-0.2c-0.4,0-0.8,0.2-1.1,0.4c-0.3,0.3-0.6,0.4-1.2,0.5
	c-0.4,0.1-0.8,0.2-1.2,0.4c-0.4,0.2-0.8,0.4-1.2,0.5c-1,0.5-1.5,0.8-2.3,0.8c-0.3,0-0.5,0-0.8-0.1c-0.2-0.1-0.5-0.1-0.7-0.1
	c-0.8,0-1.3,0.5-1.6,1.1c-0.3-0.1-0.6-0.2-0.8-0.2c-0.7,0-1.3,0.5-1.5,0.9c-0.4,0.5-1,0.8-1.4,0.9c-1.3,0.2-2.4,0.9-3.5,1.8
	c-0.1,0.1-0.2,0.2-0.3,0.3c-0.1,0.1-0.2,0.2-0.2,0.3c-0.8,0.3-1.4,0.7-1.8,1.3c0-0.1-0.1-0.3-0.2-0.4l-0.1-0.1l-0.1-0.3
	c0-0.1-0.1-0.2-0.3-0.3c0.2-0.1,0.4-0.1,0.6-0.2c0.4-0.1,0.7-0.3,0.9-0.4c0,0,0.1-0.1,0.2-0.1c0.5-0.3,0.5-0.8,0.5-1
	s0.4-0.2,0.8-0.2c0.3,0,0.5-0.1,0.8-0.2c0.1-0.1,0.2-0.2,0.3-0.3c0.7-0.1,1.2-0.4,1.6-0.7c0.2-0.1,0.4-0.3,0.6-0.3
	c0.6-0.2,0.7-0.8,0.8-1l0.1-0.2c0.1-0.3,0-0.6-0.3-0.8l-0.1-0.1c-0.2-0.2-0.5-0.3-0.9-0.3l0,0c-0.9,0-1.6,0.4-2.3,0.7
	c-0.4,0.2-0.7,0.4-1.1,0.4l-0.1,0.1c-0.2,0.1-0.3,0.2-0.4,0.3l-0.1,0.1c-0.2,0.4-0.3,1.2-0.4,1.1c-0.1,0-0.2-0.1-0.3-0.1l-0.3-0.1
	c-0.1,0-0.1,0-0.2,0s-0.2,0-0.3,0c-0.2,0.1-0.5,0.1-0.7,0.1c-0.7,0.1-1.5,0.2-2.2,0.7c-0.7,0.4-1.3,0.7-2,1.1l-0.8,0.4
	c-0.3,0.1-0.6,0.3-1.1,0.6c-0.4,0.3-0.6,0.7-0.5,1.3l0.1,0.2c0.1,0.3,0.3,0.5,0.5,0.5h0.2c0.1,0,0.2,0.1,0.4,0.1
	c0.3,0.1,0.7,0.2,1.1,0.2c0.2,0,0.5,0,0.7-0.1l0.5-0.2c0.3-0.1,0.6-0.2,0.9-0.4c-0.1,0.2-0.2,0.3-0.3,0.5l-0.1,0.2
	c-0.1,0.2-0.5,0.8-0.2,1.4c0.1,0.3,0.4,0.6,0.7,0.8c-0.7,0.4-1.3,0.7-2,0.8c-0.7,0-1.5,0.2-2.1,1C256.8,113,256.3,113.1,255.3,113.2
	z M321.2,102.6l-0.4-0.3c0,0-0.2-0.1-0.4-0.2c-0.6-0.2-1.3-0.2-2-0.2c-1,0-2.1,0.1-3.6,0.4c-0.9,0.2-1.5,1-1.6,1.8l-0.1,0.4
	c0,0.2,0,0.4,0.2,0.6c0.1,0.1,0.3,0.2,0.5,0.2h0.4c1.5-0.1,3-0.4,4.4-0.6h0.2c0.8-0.1,1.4-0.4,2-0.8l0.4-0.3
	c0.2-0.1,0.3-0.4,0.3-0.6S321.4,102.7,321.2,102.6z M242.5,103.3c0,0.1,0,0.1,0.1,0.2l0.1,0.2c0.1,0.2,0.4,0.4,0.6,0.4h0.1l0.4-0.1
	c0.2,0,0.4,0,0.6-0.1c0.7-0.3,1.4-0.7,1.9-1.4c0.1-0.2,0.5-0.6,0.4-1.3c-0.1-0.4-0.3-0.7-0.6-0.9c-0.2-0.2-0.5-0.2-0.8-0.2
	s-0.7,0.1-0.9,0.3c-0.6,0.5-1.3,1-1.7,1.4C242.5,101.9,242.3,102.2,242.5,103.3z M237.5,109.4c0.1,0.1,0.4,0.2,0.5,0.2h0.2
	c0.3,0,0.8-0.1,1.3-0.6l0.5-0.5c0.8-0.8,1.5-1.6,2.3-2.4c0.3-0.3,0.4-0.7,0.6-1.1c0.2-0.5,0-1.1-0.3-1.4c-0.2-0.3-0.6-0.4-1.1-0.4
	l0,0c-0.3,0-0.7,0.2-1,0.4c-1.2,1.1-2.2,2.4-3.2,3.8c-0.2,0.3-0.3,0.6-0.3,0.8C236.9,108.6,237.1,109,237.5,109.4z M226.3,147.5
	v-0.2c-0.2-0.6-0.7-0.9-1.3-0.9c-0.2,0-0.5,0.1-0.7,0.2c-0.4,0.2-0.7,0.5-0.9,0.8c-0.3,0.5-0.2,1-0.2,1.1c0.1,0.5,0.4,0.8,0.6,0.8
	c0.2,0.1,0.4,0.1,0.6,0.1c0.7,0,1.3-0.6,1.3-0.7C226,148.6,226.4,148.2,226.3,147.5z M229.2,130.3c0-0.1,0-0.2,0-0.3
	c-0.1-0.6-0.5-0.9-1.1-1.1c-0.2-0.1-0.4-0.1-0.6-0.1c-0.6,0-1.1,0.2-1.4,0.6c-0.1,0.1-0.1,0.1-0.2,0.2c-0.4,0.3-1,0.8-1,1.6
	c0,0.6-0.1,0.9-0.3,1.2c-0.4,0.5-0.2,1.2,0.1,1.4c0.2,0.3,0.6,0.4,1,0.4c0.2,0,0.4-0.1,0.6-0.1c0.2-0.1,0.3-0.2,0.5-0.4
	c0.8-1,1.4-1.8,2.2-2.8C229.2,130.8,229.2,130.4,229.2,130.3z M233.5,134.3c-0.1-1.1-0.8-1.2-1.2-1.3c-0.4,0-0.9,0.2-1.1,0.7
	c-0.3,0.6-0.6,1.1-0.9,1.6c-0.2,0.4-0.1,0.8,0,0.9l0.1,0.3c0.1,0.3,0.4,0.5,0.7,0.5c0.1,0,0.1,0,0.2,0l0.3-0.1
	c0.1,0,0.5-0.1,0.8-0.4c0.3-0.3,0.7-0.8,1-1.3C233.6,134.9,233.5,134.5,233.5,134.3z M235.9,125c0.1-0.1,0.2-0.1,0.3-0.2l0.3-0.2
	c1.3-1,2.6-1.9,3.6-3.4c0.8-1.1,1.8-1.9,3-2.8c0.2-0.1,0.5-0.3,0.7-0.6c0.4-0.5,0.8-1,1.4-1.4l0.1-0.1c0.4-0.4,0.8-0.8,1.2-1.2
	c0.2-0.1,0.3-0.1,0.5-0.3c0.1-0.1,0.1-0.1,0.2-0.2h0.2c0.8-0.3,1.8-0.6,2.4-1.8c0-0.1,0.2-0.2,0.4-0.3c0.2-0.2,0.5-0.3,0.7-0.6
	c0.9-0.3,1.3-0.9,1.5-1.4c0,0,0.1,0,0.1-0.1c0.1-0.1,0.2-0.2,0.2-0.2c0.5-0.2,0.9-0.5,1.2-0.7c0.2-0.2,0.4-0.3,0.6-0.4
	c0.4-0.2,0.6-0.6,0.7-0.8c0.3-0.6,0.1-1.3-0.4-1.6c-0.3-0.2-0.6-0.3-0.9-0.3c-0.4,0-0.8,0.2-1,0.5c-0.3,0.4-0.6,0.6-1.1,1l-0.4,0.3
	l-0.1,0.1c-0.4,0-0.7,0.1-1,0.4l-1.4,1.2c-0.3-0.3-0.8-0.5-1.2-0.5c-0.6,0-1.2,0.3-1.4,0.9c-0.2,0.4-0.5,1-0.2,1.6
	c0,0.1-0.2,0.3-0.2,0.3l-0.1,0.2c0,0-0.1,0.1-0.2,0.2s-0.2,0.2-0.3,0.3l-0.2,0.3c-0.4,0.1-0.8,0.3-1.1,0.6c-0.2,0.1-0.3,0.3-0.5,0.4
	c0.3-0.6,0.1-1.1-0.1-1.4c-0.3-0.4-0.7-0.7-1.1-0.7c-0.5,0-0.9,0.3-1.1,0.5c-0.1,0.1-0.3,0.2-0.4,0.3c-0.3,0.2-0.5,0.4-0.8,0.6
	c-0.2,0.2-0.3,0.3-0.5,0.4l-0.2,0.2c-0.7,0.5-1.4,1.2-1.8,2.1c-1,0.3-1.7,1-2.2,2c-0.2,0.3-0.3,0.9,0,1.4c0.1,0.1,0.2,0.2,0.3,0.3
	c-0.1,0.1-0.3,0.3-0.4,0.5l-0.2,0.3c-0.5,0.7-1,1.4-1.5,1.8c-0.6,0.4-0.9,1-1.2,1.4c-0.3,0.5-0.5,0.8-0.8,1c-0.5,0.3-0.8,0.8-1,1.2
	l-0.1,0.1l-0.1,0.2c-0.5,0.8-0.3,1.8,0.6,2.4c0.3,0.2,0.5,0.3,0.8,0.3s0.8-0.1,1.2-0.6c0.4-0.4,0.9-0.8,1.4-1.2
	C234.5,126.5,235.3,126,235.9,125z M238.7,129.9c0.4-0.3,0.7-0.8,0.8-1.2h0.1c0.5-0.1,1.1-0.5,1.1-1.1v-0.1l0,0
	c0.6,0,1.1-0.3,1.5-0.9c0.1-0.1,0.1-0.2,0.2-0.2c0.4-0.1,0.8-0.3,1-0.7c0.2-0.3,0.5-0.6,0.7-0.9l0.6-0.7c0.3-0.3,0.3-0.8,0.2-1.2
	c-0.1-0.4-0.4-0.7-0.9-0.8c-0.2,0-0.4-0.1-0.6-0.1h-0.1c-0.2-0.1-0.3-0.1-0.5-0.1c-0.6,0-1.1,0.4-1.3,0.7c0,0-2.2,2.3-2.5,2.6
	c-0.1,0.1-0.2,0.3-0.3,0.4c-0.3,0.3-0.5,0.6-0.5,1c-0.1,0-0.2,0-0.3,0.1c-0.6,0.3-0.9,0.8-1.1,1.1l-0.1,0.1c-0.4,0.5-0.5,1-0.4,1.4
	c-0.1,0-0.1,0-0.2,0l0,0c-0.5,0-1,0.3-1.3,0.8c-0.3,0.5-0.4,1-0.3,1.4c0.1,0.4,0.4,0.6,0.6,0.7l0.2,0.1c0.1,0.1,0.2,0.1,0.3,0.1h0.1
	h0.1c0.1,0,0.4,0,0.6-0.2c0.7-0.4,1.1-1.1,0.9-1.9l0,0c0.1,0,0.1,0,0.2,0C237.8,130.4,238.3,130.3,238.7,129.9z M311.6,108.6
	l0.5,0.1c0.1,0,0.2,0,0.3,0c0.3-0.1,0.5-0.2,0.9-0.3c0.3-0.1,0.6-0.2,0.8-0.2c0.2,0.3,0.4,0.4,0.8,0.5c0.2,0,0.3,0.1,0.5,0.1
	c0.2,0,0.3,0,0.5,0c0.2,0,0.7-0.1,1.1-0.2h0.2c0.3,0,0.6-0.1,0.7-0.1c0.4,0,1-0.1,1.4-0.4c0.3-0.2,0.7-0.6,0.7-1.1
	c0-0.6-0.5-1.1-0.9-1.2c-0.4-0.1-0.7-0.2-1.2-0.2s-1,0.1-1.4,0.4c0,0-0.1,0-0.1-0.1c-0.1,0-0.2-0.1-0.3-0.1
	c-0.2-0.1-0.5-0.1-0.7-0.1c-0.1,0-0.3,0-0.4,0s-0.2,0-0.2,0c-0.1,0-0.2,0-0.2,0c-0.6-0.2-1.2-0.3-1.7-0.3c-0.6,0-1.3,0.1-1.8,0.3
	c-0.4,0.2-0.8,0.3-1.1,0.3c-0.2,0-0.4,0-0.6-0.1c-0.2-0.1-0.4-0.1-0.7-0.1c-0.6,0-1.1,0.2-1.4,0.4c-0.8,0.3-1.4,0.6-2.1,0.6
	c-0.1,0-0.3,0-0.4-0.1c-0.1,0-0.3,0-0.4,0c-0.6,0-1.1,0.2-1.4,0.5c-0.1,0-0.2,0.1-0.3,0.1l-0.5,0.2c-0.2,0.1-0.4,0.3-0.4,0.5
	s0.1,0.5,0.3,0.6l0.4,0.3c0.4,0.3,0.9,0.5,1.4,0.5c0.3,0,0.7-0.1,1-0.2c1-0.2,1.9-0.3,3.1-0.4c0.9-0.1,1.7-0.2,2.6-0.3
	c0.1,0,0.2,0,0.3,0c0.2,0,0.3,0,0.5,0C311.4,108.6,311.6,108.6,311.6,108.6z M339.2,107.2c0.1,0,0.1,0,0.2,0
	c0.8-0.1,1.7-0.6,1.6-2.2c0-0.1,0-0.3,0-0.4c0.1-1.4-0.4-2-1.8-2.2c-0.3,0-0.6,0-0.8,0h-0.3c-0.1,0-0.1,0-0.2,0s-0.2,0-0.3,0
	c-0.7,0-1.1,0.3-1.2,0.6c-0.1,0.1-0.1,0.2-0.2,0.4c-0.1-0.1-0.3-0.2-0.5-0.3c-0.2-0.1-0.5-0.3-0.9-0.3c-0.3,0-0.7,0.1-1.1,0.6
	c-0.3-0.1-0.6-0.3-0.9-0.3c-0.1,0-0.2,0-0.3,0c-0.2,0-0.5,0-0.8,0h-0.1c-0.3-0.2-0.6-0.4-1-0.4c-0.1,0-0.1,0-0.2,0
	c-0.2,0-0.4-0.1-0.6-0.1c-0.6,0-1.2,0.3-1.4,0.9c-0.5,0.2-0.8,0.5-1.1,0.8c-0.2,0.3-0.4,0.8-0.2,1.2c0.2,0.5,0.6,0.8,1.1,0.9
	c0.6,0,1.1,0.1,1.7,0.1h0.4h0.1c0.4,0.1,0.9,0.2,1.2,0.3c0.3,0.4,0.7,0.7,1.2,0.7c0.3,0,0.6-0.1,0.9-0.4l0,0
	c0.2,0.1,0.3,0.1,0.5,0.1c0.2,0,0.4,0,0.6-0.1c0.1,0,0.2,0.1,0.2,0.1c-0.3,0.1-0.5,0.3-0.8,0.5c-0.3,0.4-0.4,0.8-0.3,1.3
	c0.5,1.1,2.5,1.4,3.4,1.4c0.1,0,1.2,0,1.2,0c0.2,0,0.3,0,0.5,0c0.3,0,0.6-0.2,0.8-0.3l0.4-0.2c0.2-0.1,0.3-0.3,0.4-0.5
	c0.1-0.2,0-0.4-0.1-0.6l-0.2-0.2l-0.1-0.2c-0.1-0.2-0.3-0.5-0.7-0.7l-0.4-0.2C339.2,107.2,339.2,107.2,339.2,107.2z M344.8,101.9
	c0.2,0.2,0.4,0.3,0.7,0.4l0.6,0.2c0.6,0.2,1.1,0.4,1.6,0.6c0.1,0.1,0.2,0.3,0.4,0.3c0.3,0.1,0.5,0.2,0.7,0.3
	c0.7,0.2,1.4,0.3,2.2,0.5c0.1,0,0.3,0.1,0.4,0.1c0.2,0,0.4,0,0.5-0.1c0.2,0.2,0.5,0.4,0.8,0.5c0.2,0,0.4,0,0.5,0l0.4,0.1
	c0.1,0,0.2,0,0.3,0l0,0l0,0c0.2,0,0.7,0,1-0.4c0.2-0.2,0.3-0.6,0.3-0.8c0-0.6-0.5-1.1-0.9-1.2c-0.4-0.2-0.8-0.3-1.2-0.4l0,0
	c0.6-0.1,1-0.6,1.1-1.2c0.1-0.5,0-1-0.3-1.4c-0.2-0.3-0.6-0.5-0.9-0.6l-2-0.3c-0.1,0-0.2-0.1-0.3-0.1h-0.3c-0.1,0-0.1,0-0.2,0
	c-0.1,0-0.2,0-0.2,0c-0.1,0-0.1-0.1-0.2-0.1c-0.6-0.3-1.2-0.4-1.6-0.5c-0.2,0-0.4-0.1-0.6-0.1c-1.2-0.4-2.3-0.7-3.5-1.1l-2.4-0.8
	c-0.3-0.1-0.6-0.2-0.9-0.2c-0.6,0-1,0.3-1.2,0.5c-0.2,0.3-0.3,0.6-0.3,1c0.2,0.9,0.9,1.2,1.2,1.3c0.6,0.3,1,0.5,1.3,0.5
	c0.7,0.1,1.4,0.4,2.1,0.7c0.2,0.1,0.5,0.2,0.7,0.3c-0.3,0.3-0.5,0.7-0.5,1.1C344.2,101.2,344.4,101.5,344.8,101.9z M352.3,111
	c0-0.5-0.5-1.3-1.2-1.3c-0.2,0-0.3,0-0.3-0.1c-0.1-0.5-0.4-0.8-0.7-1c-0.2-0.1-0.5-0.2-0.8-0.2c-0.4,0-0.7,0.1-0.9,0.3
	c-0.1,0.1-0.2,0.2-0.3,0.3c-0.1-0.1-0.1-0.2-0.3-0.3c-0.3-0.2-0.9-0.7-1.6-0.7c-0.1,0-0.3,0-0.4,0c-0.3,0.1-0.8,0.3-1,0.9
	c-0.2,0.5,0,1,0.4,1.4c0.1,0.1,0.2,0.2,0.4,0.3c-0.4,0.2-0.6,0.7-0.6,1.1c0,0.4,0.2,0.9,0.6,1.2c0.4,0.2,0.8,0.3,1.2,0.3
	c0.6,0,1.2-0.3,1.6-0.8c0.1-0.1,0.2-0.3,0.2-0.4c0.1,0.1,0.2,0.2,0.3,0.2c0.4,0.3,0.8,0.3,1.1,0.3h0.4h0.6c0.4,0,0.8-0.2,1.1-0.5
	C352.2,111.7,352.3,111.3,352.3,111z M356.6,111.5c-0.1-1.3-1.1-1.4-1.5-1.4l0,0l-0.2-0.1c-0.3-0.5-0.9-0.9-1.5-0.9
	c-0.4,0-0.7,0.2-1,0.5l-0.1,0.1l-0.1,0.2c-0.1,0.2-0.1,0.5,0,0.7l0.1,0.2c0.1,0.1,0.2,0.3,0.3,0.5c0.3,0.5,0.7,1.3,1.5,1.6
	c0.3,0.1,0.5,0.2,0.8,0.2c0.3,0,0.5,0,0.7-0.1C356.3,112.8,356.7,112.3,356.6,111.5z M424.6,154c0.2-0.3,0.4-0.6,0.4-1.1
	c0-1.1-0.7-1.8-1.7-2c0,0,0,0-0.1,0s-0.1,0-0.2,0c-0.6,0.1-1,0.4-1.2,0.8c-0.2,0.4-0.2,0.9,0.1,1.4c0.2,0.4,0.5,0.7,0.7,1l0.6,0.7
	c0.1,0.2,0.3,0.3,0.5,0.3c0,0,0,0,0.1,0c0.2,0,0.4-0.2,0.6-0.4l0.2-0.4L424.6,154z M426.9,158.9c0.1,0,0.3,0,0.4,0
	c0.6-0.1,0.8-0.5,1.1-0.8l0.1-0.1c0.1-0.2,0.2-0.4,0.1-0.6v-0.2c-0.3-1-1.4-1.5-2.2-1.5c-0.3,0-0.5,0.1-0.8,0.2
	c-0.2,0.1-0.5,0.3-0.7,0.8c-0.1,0.4-0.1,0.8,0,1.1C425.4,158.5,426,158.9,426.9,158.9z M429.3,161.7c0.2-0.1,0.7-0.3,0.9-0.8
	c0.4-0.8,0-1.6-0.8-2c-0.2-0.1-0.5-0.2-0.7-0.2c-0.8,0-1.4,0.6-1.4,1.3c-0.1,0.8,0.4,1.5,1.2,1.7h0.1h0.1
	C428.9,161.9,429.1,161.8,429.3,161.7z M217.7,152.6c0-0.9,0.4-1.5,0.7-1.9c0.7-0.7,1.4,0,1.4,1.2c0,0.9-1.3,2.6-2,3.2
	C217.1,155.4,217.7,153.9,217.7,152.6z M219,137.5c-0.1,0-0.4-0.2-0.5-0.3c-0.5-0.7,0.1-1.4,0.3-1.9c0.1-0.2,0.2-0.3,0.4-0.4
	c0.2-0.1,0.4-0.1,0.6-0.1c0.1,0,0.2,0.1,0.2,0.2c0,0.2,0,0.4,0,0.6s0,0.3,0,0.4C219.7,136.5,219.9,137.4,219,137.5z M222,160.7h0.2
	c0.4-0.1,1.5-0.3,1.6-1.5c0-0.6-0.1-1.1-0.5-1.6c-0.1-0.2-0.4-0.3-0.6-0.3h-0.1c-0.9,0.1-1.9,1.5-1.8,2.3S221.5,160.7,222,160.7
	L222,160.7z M232.1,149c0.5,0,0.9-0.3,1.1-0.6c0.2-0.3,0.3-0.7,0.1-1c-0.1-0.3-0.4-0.5-0.8-0.6h-0.1c-0.1,0-0.2,0-0.3,0.1l-0.1,0.1
	c-0.2,0.1-0.5,0.2-0.7,0.5c-0.2,0.3-0.3,0.7-0.1,1.1C231.3,148.8,231.6,149,232.1,149L232.1,149z M234.2,146.3
	c0.6-0.2,1.1-0.6,1.4-1.2c0.2-0.3,0.1-0.7,0-0.9c-0.1-0.2-0.5-0.4-0.7-0.4l0,0c-0.8,0.1-1.4,0.4-1.7,1.1c-0.3,0.4-0.1,0.8,0,1
	c0.1,0.2,0.3,0.3,0.5,0.4h0.1C233.9,146.4,234,146.4,234.2,146.3C234,146.4,234.1,146.4,234.2,146.3z"/>
<path d="M304.9,322.1c-0.2-1.3,4-2.1,4.2-1.6c0.4,0.9-0.5,1.9-2.2,2.3C305.8,322.9,305.1,323.4,304.9,322.1z M301.9,326.4
	c-0.4,0-1,0.2-1.4,0.3c-0.2,0-0.3,0.1-0.3,0.1c-0.5,0.1-0.7,0.6-0.8,0.9v0.1c-0.1,0.2,0,0.4,0,0.5c0.1,0.2,0.3,0.3,0.7,0.3l0,0
	c0.6,0,2.2-1.2,2.2-1.7C302.4,326.6,302.3,326.4,301.9,326.4z M303,322.7c-0.2,0-0.4,0-0.6,0c-0.6,0.1-1.1,0.3-1.4,0.5
	c-0.1-0.1-0.2-0.1-0.3-0.2c-0.1-0.1-0.5,0-0.6,0c0,0,0.1-0.4,0.3-0.5c0.4-0.2,0.7-0.3,1.1-0.5c0.2-0.1,2.1-0.4,2.3-0.5
	s0.3-0.3-0.1-0.4c-0.2,0-2.9,0.6-3,0.5c-0.2-0.1-0.2-0.5-0.1-0.6s2.9-0.5,3-0.6c0.1,0,0.1-0.2,0.1-0.2c0-0.1-0.1-0.1-0.1-0.1
	c-0.8,0.2-3.3,0.3-4.2,0.4c-0.2,0-0.3,0-0.5-0.1c-0.1,0-0.3-0.2-0.3-0.3s0.2-0.3,0.2-0.3c0.4,0,0.8-0.1,1.2-0.1
	c0.2,0,0.5,0.2,0.7,0.2c0.2-0.1,0.3-0.5,0.2-0.7c-0.2-0.3-1.5-0.3-1.9-0.2c-0.3,0.1-1.4,0-1.9,0.1c-0.3,0-2.2,0-3.3-0.2
	c-1.8-0.3-4.8-0.8-6.4-1.4c-2.2-0.9-4.6-1.9-7-3.3c-1.4-0.8-3.5-1.8-4.8-2.8c-1.8-1.4-3-2.1-4.7-3.5c-1.4-1.1-3.4-3-4.8-4.2
	c-1.9-1.6-3.9-3.4-5.9-5.1c-2.9-2.5-5.3-5.4-8.2-8c-0.2-0.2-0.5-0.4-0.7-0.7c-0.9-1.1-1.6-2.1-2.5-3.2c-0.2-0.3-0.4-0.7-0.7-0.8
	c-0.9-0.2-1.1-0.9-1.3-1.6c-0.2-1-0.8-1.7-1.7-2c-0.5-0.2-0.9-0.4-1.2-0.8c-0.5-0.6-0.9-1.2-1.4-1.8c-0.2-0.3-0.4-0.6-0.3-1
	c0-0.4-0.1-0.6-0.4-0.8c-0.5-0.2-0.9-0.6-0.8-1.1c0.1-0.6-0.2-0.9-0.6-1c-0.3-0.1-0.4-0.3-0.4-0.6c0.1-0.5-0.2-0.9-0.7-1
	c-0.6-0.1-0.9-0.6-1.2-1.1c-1.2-1.8-2.3-3.6-3.3-5.6c-0.3-0.6-0.6-1.2-0.9-1.7c-1.2-1.9-1.9-4.1-2.8-6.1c-0.8-1.8-1.7-3.5-2.5-5.2
	c-0.1-0.3-0.5-0.4-0.5-0.8c-0.1-0.8-0.4-1.5-1-2.1c-0.2-0.2-0.2-0.5-0.3-0.7c-0.2-0.6-0.5-1.2-0.7-1.7c-0.4-1-1-2-1.4-3
	c-0.4-1.1-1.1-2-1.3-3.1c-0.1-0.7-0.5-1.2-0.9-1.7c-0.4-0.6-0.2-1.4-0.6-2c-0.4-0.7-0.7-1.4-0.9-2c-0.3-0.7-0.4-1.4-0.9-1.8
	c-0.6-0.6-0.1-1.4-0.5-2c-0.2-0.3-0.4-0.6-0.3-1c0-0.2-0.1-0.4-0.2-0.5c-0.7-0.8-0.9-1.7-1.2-2.6s-0.4-1.8-1-2.5
	c-0.1-0.1-0.2-0.4-0.2-0.5c0.1-0.5-0.1-0.6-0.5-0.7c-0.4,0-0.6-0.4-0.4-0.7c0.4-0.6,0.3-1.2,0.1-1.7c-0.6-1.5-0.7-3.3-1.5-4.7
	c-0.1-0.3-0.1-0.6-0.1-0.9c0-1.1-0.4-2-0.5-3.1c-0.1-0.5-0.3-1.1-0.5-1.4c-0.2-0.4-0.7-1.9-0.7-2.3c0-1,0-1.8-0.5-2.6
	c-0.3-0.5-0.6-1.1-0.4-1.5c0.2-0.5,0.2-1.1-0.1-1.5c-0.2-0.4-0.3-0.9-0.2-1.3c0-0.3,0-0.6-0.1-0.9c-0.5-1.1,0-2.3-0.7-3.3
	c-0.1-0.1-0.1-0.3-0.1-0.5c0-0.3-0.1-0.6-0.1-0.9c-0.2-1.4-0.6-2.9-0.6-4.4c0-1-0.2-2-0.3-3c-0.1-3.3-0.1-6.6-0.2-9.8
	c-0.1-3.7-0.2-7.3-0.2-11c0-0.6-0.1-1.3,0-1.8c0.2-0.9,0.1-1.6,0.2-2.5c0-0.5,0-1,0.1-1.4c0.3-2,0.4-4,0.5-6c0-0.5,0-1.1,0.1-1.5
	c0.1-1.1,0.2-2.1,0.3-3.1c0-1,0-1.9,0.2-2.9c0.1-0.3,0-0.6,0-0.9c0-0.1,0.1-1.2,0.2-1.6c0.2-1.2,0.4-2.3,0.5-3.5
	c0.1-0.8,0.2-1.4,0.5-2.2c0.3-1,0.6-1.9,0.9-2.9c0.3-1.1,0.6-2.2,1.1-3.3c0.5-1.1,0.6-2.2,1.1-3.4c0.1-0.2,0.1-0.4,0.1-0.7
	c-0.1-0.7,0.2-1.2,0.6-1.6c0.2-0.2,0.3-0.4,0.2-0.6c-0.2-0.4,0-0.7,0.2-1c0.7-1.1,1.4-2,1.6-3.3c0-0.2,0.2-0.3,0.3-0.4
	c0.4-0.3,0.6-0.8,0.5-1.3c-0.1-0.5,0.1-0.8,0.4-1.1c0.5-0.5,1-1.1,1.2-1.7c0.1-0.2,0.2-0.4,0.3-0.6c0.4-0.6,0.7-1.1,1.1-1.6
	c1.1-1.7,2-3.5,3.6-4.8c0.1-0.1,0.2-0.3,0.3-0.4c0.8-1,1.4-2,2.2-2.9c0.4-0.4,0.8-1,1.2-1.4c1.3-1.5,2.6-3.1,4.1-4.4
	c1.3-1.2,2.7-2,3.9-3.4c0.9-1,1.9-1.6,3-2.4c0.3-0.2,0.5-0.3,0.8-0.5c0.2-0.1,0.3-0.3,0.2-0.5c-0.1-0.1-0.2-0.1-0.4-0.1
	c-0.5,0.1-1,0.3-1.5,0.5c-0.7,0.3-1.4,0.6-2,0.3c-0.9-0.4-1.6-0.1-2.4,0.3c-1.4,0.8-2.8,1.6-4.1,2.6c-0.7,0.6-1.4,1.1-2.2,1.4
	c-0.7,0.3-1.3,0.7-1.7,1.1s-0.9,0.7-1.4,1.1c-0.6,0.4-1.1,0.9-1.5,1.4c-0.3,0.3-0.5,0.5-0.8,0.7c-0.9,0.7-1.8,1.3-2.5,2.1
	c-1,1.2-1.9,2.2-2.9,3.4c-0.2,0.2-0.4,0.5-0.7,0.7c-1.1,0.8-1.8,1.7-2.7,2.6c-0.4,0.5-0.8,1-1.4,1.3c-0.8,0.5-1.4,1.1-1.8,1.8
	c-0.6,0.8-1.2,1.6-1.8,2.4c-1.4,1.4-2.5,2.8-3.6,4.3c-0.3,0.4-0.5,0.8-0.8,1.1c-1.3,1.3-2.3,2.6-3.3,4.1c-1.4,1.9-2.4,4.1-3.8,6
	c-0.8,1.2-1.5,2.4-2.3,3.5c-1,1.4-1.9,2.6-2.6,4.1c-0.9,1.7-2,3.4-3.2,4.9c-0.2,0.3-0.4,0.6-0.6,0.9c-0.4,0.6-0.7,1.3-1.1,1.8
	c-0.6,1-1.3,1.9-1.5,3.1c0,0.2-0.2,0.4-0.3,0.6c-0.5,0.5-0.7,1.1-1,1.7c-0.6,1.3-1.2,2.5-1.7,3.9c-0.1,0.3-0.3,0.6-0.3,0.9
	c0,0.7-0.4,1.4-0.5,2c-0.1,0.5-0.4,0.9-0.6,1.4c-0.2,0.3-0.4,0.6-0.7,0.8c-0.4,0.3,0.2,0.7-0.2,1c-0.3,0.4-0.4,0.9-0.6,1.4
	c-0.2,0.6-0.6,1.2-0.7,1.8c-0.8,1.2-1,2.6-1.6,3.9c-0.7,1.4-0.8,3-1.6,4.3c-0.2,1.4-1,2.4-1.2,3.8c-0.3,1.6-0.1,3.1-0.6,4.6
	c-0.3,1-0.4,1.9-0.9,2.9c-0.1,0.2-0.1,0.6-0.1,0.9c0,0.5,0,1-0.2,1.4c-0.4,1.2-0.5,2.3-0.7,3.5c-0.1,0.4-0.1,0.9-0.2,1.3
	c-0.3,1-0.6,1.9-0.7,2.9c-0.2,1.3-0.4,2.5-0.3,3.8c0,0.1,0,0.3,0,0.4c-0.4,0.8-0.3,1.5-0.3,2.3c-0.1,0.8-0.1,1.5-0.3,2.3
	c-0.1,0.2-0.1,0.4,0,0.5c0.5,0.6,0.2,2.5,0.2,3.1c0,0.3,0,0.5,0,0.8c0.1,1.8,0.2,3.7,0.2,5.5c0,0.5,0,1.1,0.2,1.5
	c0.2,0.6,0.2,1.3,0,1.8c-0.2,0.5-0.3,1-0.1,1.4c0.1,0.2,0,0.4-0.1,0.6c-0.3,0.4-0.4,1-0.3,1.4c0.2,0.6,0.2,1.2,0.2,1.8
	c0.1,0.7,0.1,1.4,0.3,2c0.2,0.5,0.3,1.1,0.3,1.6c-0.1,0.6,0,1.3,0.4,1.7c0.2,0.3,0.2,0.6,0.2,0.9c-0.1,1.1,0.2,2.1,0.5,3.2
	c0.2,0.7,0.5,1.4,0.6,2.1c0.2,1.6,0.9,3.1,1.2,4.7c0.3,1.3-0.5,2.5,0.4,3.7c0.2,0.2,0.3,0.5,0.2,0.8c0,0.2,0,0.4,0.1,0.5
	c0.3,0.4,0.3,0.7,0.1,1.1c-0.1,0.2-0.1,0.3,0,0.5c0.2,0.3,0.2,0.7,0.4,0.9c0.4,0.3,0.2,0.8,0.4,1.1c0.2,0.3,0.4,0.7,0.2,1.2
	c0,0.1,0,0.2,0,0.3c0.6,0.4,0.4,1.1,0.7,1.5c1.4,2.4,2.4,5,3.8,7.5c0.2,0.4,0.4,0.8,0.7,1.1c0.6,0.7,1.5,3.2,1.8,3.4
	c0.3,0.2,0.4,0.4,0.5,0.8c0,0.1,0.1,0.3,0.1,0.4c0.1,0.5,1.7,4.1,2.2,4.6c0.2,0.3,0.6,0.5,0.7,1c0.1,0.7,0.5,1.2,0.8,1.8
	c0.1,0.3,0.3,0.5,0.1,1s0.1,1.1,0.7,1.3c0.2,0.1,1.7,3.2,2.7,4.2c0.1,0.1,0.2,0.2,0.2,0.3c-0.1,0.5,0.3,0.7,0.5,1s0,0.8,0.3,1.1
	c0.1,0.2,0.2,0.4,0.3,0.6c0.1,0.2,1.9,3.3,2,3.5c0.3,0.4,1.4,0.5,1.5,0.8c0.4,1.3,1.2,2.2,1.8,3.3c0.2,0.3,0.4,0.5,0.7,0.6
	c0.6,0.2,0.9,0.6,1.1,1.1c0.5,1,1.1,1.8,1.7,2.6c0.5,0.6,0.8,1.3,1.4,1.6c0.2,0.1,0.3,0.4,0.5,0.6c0.3,0.4,0.7,0.9,1,1.3
	c1.6,1.9,3.3,3.4,4.9,5.3c0.6,0.7,1.2,1.4,1.8,1.9c1.4,1.2,2.7,2.3,4.1,3.3c0.6,0.4,1.2,0.9,1.6,1.3c1,0.9,1.9,1.8,3,2.6
	c1.7,1.4,3.6,3.2,5.4,4.4c2.4,1.7,5,2.6,7.5,4.1c4.2,2.3,8.7,5.3,13.2,6.8c0.2,0.1,0.4,0.2,0.6,0.2c1.3,0.1,2,0.6,3.2,1
	c1.9,0.7,4.1,1.3,6.1,1.6c1.2,0.2,2.4,0.3,3.7,0.5c1.9,0.3,3.9,0.6,5.8,0.6c0.5,0,0.9,0.1,1.3,0.2c0.6,0,1.2,0.2,1.6,0
	c0.8-0.3,1.4-0.2,2.2-0.2c1.5,0.1,3.1,0.1,4.6,0.2c1.2,0.1,2.2-0.5,3.4-0.6c1.7-0.2,4.2-0.4,5.7-1.2c0.1,0,0.2,0,0.3,0
	c0.9,0.1,1.7-0.2,2.6-0.3s1.6-0.6,2.5-0.8c0.5-0.1,2.7-0.5,3.2-0.6c1.4-0.5,2.9-1,4.3-1.4c0.7-0.2,1.3-0.6,1.9-0.8
	c0.2-0.1,0.2-0.3,0.1-0.4c-0.3-0.2-0.6-0.4-1-0.3c-0.3,0.1-0.7-0.2-0.9-0.2c-1,0-0.6,0.7-0.7,0.9c-0.2,0.3-0.5,0.3-0.8,0.1
	c-0.1-0.1-0.2-0.1-0.3-0.2c-0.2-0.1-0.3-0.1-0.4,0.1s-0.1,0.1-0.2,0.3s-0.3,0.4-0.5,0.4c-0.5-0.1-0.9,0-1.3,0.1
	c-0.4,0.1-2.4-0.2-2.8,0.1c-0.1,0-0.5-0.3-0.5-0.4s0.3-0.4,0.3-0.4c0.7-0.1,2.9-0.7,3.5-0.7c0.1,0,0.2,0,0.2-0.1
	c0.4-0.7,1.4-0.3,1.8-0.9c0.5-0.6,4-1,4.3-1.1c0.1,0,1.6-0.7,1.7-0.7l0.1-0.1c0-0.1,0-0.2-0.1-0.2c-1.1,0.1-6.1,0.7-6.6,0.7
	c-0.3,0-0.7,0.1-1,0.3c-0.1,0.1-0.3,0.2-0.4,0c-0.2-0.2-0.3-0.4-0.2-0.6c0.2-0.3,0.4-0.5,0.5-0.8c0.1-0.3,2.5-0.9,2.7-1
	c0.7-0.3,3.1-0.1,3.1,0c0.1,0.1,0.2,0.4,0.5,0.4l0,0c0.2,0,0.4-0.1,0.6-0.2c0.2,0.1,0.4,0.1,0.8,0.1c0.1,0,0.1,0,0.2,0
	c1.1,0,1.4-0.4,1.8-0.7c0.1-0.1,0.4-0.4,0.4-0.4v-0.1C303.8,322.7,303.2,322.7,303,322.7z M205,132.9c0.3-0.8,0.7-1.7,1.5-2.4
	l0.1-0.1c0.1-0.1,0.2-0.2,0.2-0.2c0.1-0.6,0.6-1,0.9-1.2c0.1-0.1,0.2-0.1,0.2-0.2c0.1-0.1,0.3-0.2,0.4-0.2l-0.1-0.1
	c-0.4-0.5-0.1-1-0.1-1.2c0-0.1,0-0.1,0.1-0.2c0.4-0.6,0.8-0.9,1.4-1c0.1,0,0.2,0,0.3,0c0.5,0,0.9,0.3,1.1,0.8c0.1,0.4,0,0.9-0.4,1.2
	c-0.2,0.2-0.5,0.4-0.7,0.5c-0.1,0.1-0.2,0.2-0.4,0.3c0.2,0.2,0.3,0.5,0.3,0.6c0.1,0.4-0.2,0.8-0.3,0.9l-0.1,0.2
	c0,0.2-0.1,0.4-0.3,0.7c0,0.1,0.1,0.2,0.1,0.3c0,0.2-0.1,0.5-0.3,0.6c-0.2,0.2-0.2,0.4-0.2,0.9v0.4c0,0.8-0.5,1.4-0.9,1.7
	c-0.3,0.4-0.7,0.4-0.8,0.4h-0.1c-0.2,0-0.5-0.1-0.6-0.2l0,0c-0.1-0.1-0.2-0.2-0.2-0.3c-0.1-0.3-0.2-0.4-0.2-0.4s-0.2-0.1-0.3-0.1
	C205,134.2,204.7,133.6,205,132.9z M202.6,137.3c0.1-0.2,0.2-0.5,0.3-0.8c0-0.1,0.1-0.1,0.1-0.2c0.2-0.4,0.5-1,1.3-1.2
	c0.1,0,0.1,0,0.2,0c0.3,0,0.5,0.1,0.7,0.3c0.1,0.1,0.2,0.2,0.2,0.3c0.1,0.1,0.3,0.3,0.5,0.5c0.2,0,0.5,0.1,0.7,0.3
	c0.3,0.3,0.3,0.6,0.3,0.8c0,0.3-0.3,0.8-0.7,0.9c-0.1,0.1-0.3,0.1-0.4,0.1h-0.1c0,0.2-0.1,0.3-0.2,0.5c-0.2,0.4-0.5,0.6-0.7,0.8
	l-0.1,0.1c-0.1,0.1-0.3,0.2-0.5,0.2c0,0-0.1,0-0.2,0c-0.2,0-0.4-0.1-0.6-0.2c-0.4-0.2-0.6-0.7-0.5-1.1l0,0l-0.1-0.1
	C202.5,138.1,202.4,137.6,202.6,137.3z M195.8,148.6c0-0.1,0.1-0.1,0.1-0.2c0.2-0.6,0.7-0.9,1.2-0.9c0.4,0,0.7,0.2,0.9,0.5
	c0.2,0.4,0.3,0.9,0,1.3c-0.1,0.2-0.3,0.5-0.4,0.7c-0.2,0.3-0.4,0.4-0.5,0.5c-0.1,0.1-0.3,0.2-0.5,0.2c-0.1,0-0.2,0-0.3-0.1h-0.1
	c-0.3-0.1-0.5-0.3-0.6-0.6C195.5,149.4,195.7,148.9,195.8,148.6z M186.2,171.6c0.1-0.2,0.4-0.5,0.8-0.6l0,0c0.5,0,0.7,0.2,0.9,0.4
	c0.1,0.1,0.3,0.4,0.1,0.9c0,0,0,0.1-0.1,0.3c0.1,0,0.2-0.1,0.2-0.1c0.1,0,0.2,0,0.3,0c0.5,0,0.8,0.3,0.9,0.4
	c0.2,0.3,0.2,0.6,0.1,0.9c0,0.1,0,0.2-0.1,0.3c-0.1,0.4-0.2,0.8-0.5,1.2c-0.2,0.3-0.6,0.5-0.9,0.5c-0.3,0-0.5-0.1-0.7-0.3
	c-0.1-0.1-0.2-0.3-0.3-0.5c0,0-0.1,0-0.1,0.1c-0.1,0.1-0.3,0.1-0.4,0.1c-0.2,0-0.4-0.1-0.5-0.2l-0.1-0.1c-0.1-0.1-0.2-0.3-0.3-0.5
	c-0.1-0.5-0.1-0.9,0.1-1.4c0.2-0.4,0.4-0.7,0.6-1.1V171.6z M182.6,170.3c0.5-0.8,0.7-1.6,1-2.4c0.1-0.3,0.1-0.6,0.2-0.8
	c0.1-0.3,0.3-0.5,0.5-0.7c0.2-0.1,0.5-0.2,0.7-0.2c0.1,0,0.2,0,0.3,0.1c0.4,0.1,0.6,0.5,0.6,0.6c0.1,0.3,0.1,0.5,0.1,0.6
	c0,0.1,0,0.1,0,0.2c0,0.1-0.1,0.2-0.1,0.2c-0.1,0.1-0.1,0.3-0.1,0.5c-0.1,0.4-0.2,0.9-0.5,1.4l0,0c0,0,0,0.1,0.1,0.2
	c0,0.2,0.1,0.4,0.1,0.7c-0.1,1-0.6,1.4-1.5,1.4h-0.1c-0.5,0-0.9-0.2-1.1-0.6C182.3,171,182.3,170.6,182.6,170.3z M181.1,175.8
	L181.1,175.8c0-0.2,0.1-0.4,0.1-0.6c0.1-0.4,0.5-0.6,0.6-0.6l0.1-0.1c0.1-0.1,0.3-0.1,0.4-0.1s0.1,0,0.2,0c0.2,0,0.4,0.2,0.4,0.3
	l0.1,0.2c0,0,0.2,0.2,0.2,0.5c0,0.2,0.2,0.8-0.2,1.4c-0.1,0.2-0.3,0.4-0.4,0.4l-0.2,0.1c-0.1,0.1-0.3,0.1-0.4,0.1
	c-0.2,0-0.4-0.1-0.6-0.3l-0.1-0.1c-0.1-0.1-0.2-0.3-0.3-0.5c-0.1-0.1-0.1-0.3-0.1-0.4C181.1,176.1,181.1,175.8,181.1,175.8z
	 M178.4,183.7l0.1-0.5c0.1-0.6,0.6-2.1,1.5-2.1c0.3,0,0.5,0.1,0.7,0.3c0.5,0.5,0.9,1.2,0.9,2c0.1,0.8-0.4,1.4-1.1,1.6
	c-0.1,0-0.1,0-0.1,0l0.1,0.1l0.1,0.1c0.1,0.2,0.1,0.5,0,0.7c-0.4,0.6-0.8,0.9-1.3,1.1c0,0-0.1,0-0.2,0h-0.1c-0.5,0-0.9-0.5-1-0.9
	c-0.1-0.9,0.4-1.3,0.7-1.4C178.3,184.5,178.4,184.1,178.4,183.7z M174.5,204.2C174.5,204.2,174.6,204.2,174.5,204.2
	c0-0.2,0-0.3,0-0.5v-0.2c0-0.4,0-1.4,1-1.7c0.1,0,0.3-0.1,0.4-0.1s0.1,0,0.2,0c0.2,0.1,0.6,0.2,0.8,0.5c0.4,0.7,0.4,1.4-0.1,2.2l0,0
	c0.1,0.3,0.2,0.6,0.2,0.9c-0.1,0.8-0.6,1.3-1.4,1.4h-0.1c-0.1,0-0.1,0-0.2,0l0,0c-0.6-0.1-1.1-0.7-1.1-1.4
	C174.1,204.9,174.2,204.5,174.5,204.2z M175.4,211.7C175.3,211.7,175.3,211.7,175.4,211.7c-0.2,0-0.3,0-0.4,0l0,0
	c-0.3-0.1-0.8-0.4-1-1.3c-0.1-0.5,0.1-1,0.4-1.3c0.2-0.3,0.6-0.4,0.9-0.4h0.2c0.4,0.1,0.9,0.4,1.1,0.9c0.2,0.6-0.1,1.2-0.2,1.4
	C176,211.4,175.6,211.7,175.4,211.7z M179.1,240.7v0.2c0,0.2-0.1,0.2-0.1,0.3c-0.1,0.3-0.5,0.6-0.9,0.6l0,0c-0.5,0-0.8-0.2-1-0.5
	c-0.3-0.5-0.5-1-0.6-1.4c-0.2-0.5,0-1.1,0.5-1.4c0.2-0.1,0.4-0.2,0.7-0.2c0.4,0,0.7,0.2,0.9,0.4c0.4,0.5,0.6,1.1,0.6,1.6
	C179.1,240.6,179.1,240.6,179.1,240.7z M192.5,277.4c0,0.2,0,0.4-0.1,0.6c-0.1,0.3-0.4,0.4-0.5,0.5s-0.3,0.2-0.5,0.2h-0.1
	c-0.5,0-0.9-0.4-1-0.8c0,0,0-0.1,0-0.2c0-0.2-0.1-0.5-0.1-0.8c-0.1,0-0.2,0-0.3,0c-0.4,0-0.8-0.2-1.1-0.6c-0.5-0.7-0.5-1.4-0.5-1.9
	c0-0.3,0-0.5-0.1-0.7v-0.1v-0.3c0.1-0.3,0.1-0.6,0.2-1c0.1-0.5,0.6-0.8,0.9-0.8h0.2c0.4,0,0.8,0.2,1,0.5c0.3,0.4,0.7,0.9,0.4,1.6
	c-0.2,0.7-0.1,1.1,0.1,1.4c0.2,0.2,0.2,0.5,0.2,0.8h0.1c0.4,0.1,0.7,0.5,0.9,0.8c0.1,0.2,0.1,0.4,0.1,0.6
	C192.6,277.3,192.6,277.3,192.5,277.4z M197.7,286.2c-0.2,0.2-0.5,0.3-0.8,0.3c-0.4,0-0.8-0.2-1.2-0.9c-0.1-0.1-0.1-0.3-0.2-0.4
	c-0.2-0.4-0.6-0.9-0.6-1.4c-0.6-0.2-1-0.7-1.2-1.1c0-0.1-0.1-0.2-0.2-0.3c-0.4-0.5-0.8-1.1-0.6-1.9c0.1-0.3,0.3-0.7,0.7-0.8
	c0.1,0,0.3-0.1,0.5-0.1c0.3,0,0.6,0.2,0.8,0.4c0.5,0.8,0.9,1.5,1.4,2.3c0.2,0.1,0.3,0.2,0.4,0.3c0,0,0,0.1,0.1,0.1
	c0.7,0.5,1,1.3,1.3,2C198.1,285.1,198.1,285.8,197.7,286.2z M197.7,268.5c-0.1,0-0.1,0-0.2,0s-0.2,0-0.3,0h-0.1l-0.1-0.1
	c-0.2-0.1-0.6-0.2-0.8-0.7l0,0c-0.1,0-0.2,0.1-0.3,0.1h-0.1c-0.1,0-0.6,0-1-0.4c-0.2-0.3-0.5-0.6-0.7-0.8l-0.6-0.8
	c-0.2-0.3-0.4-0.6-0.4-0.9c-0.5-0.2-0.8-0.5-1.1-0.9c-0.5-0.1-0.9-0.5-1-0.9c0-0.3,0-0.6,0-0.9c-0.4-0.2-0.7-0.5-0.9-0.9
	c-0.2-0.5-0.4-1-0.6-1.4l-0.1-0.2c-0.4-0.9-0.8-1.6-1.1-2.5c-0.3-0.8-0.6-1.5-1-2.3c0,0-0.3-0.7-0.4-0.9c-0.1-0.3-0.2-0.5-0.2-0.8
	c-0.4-1.7-0.9-3.5-1.3-5.1c-0.1-0.2-0.1-0.4-0.2-0.5c-0.3-0.4-0.6-1-0.7-1.5c0-0.1-0.1-0.3-0.3-0.5c-1.2-1.1-1.2-2.4-1.1-3.3
	c0-0.4,0-0.6-0.1-0.8c-0.5-0.7-0.6-1.5-0.3-2.3c0.1-0.1,0.1-0.3-0.1-0.6c-0.1-0.1-0.2-0.3-0.3-0.4c-0.1-0.2-0.2-0.3-0.3-0.4
	c-1-1.4-1.4-2.7-1.2-4.2c0-0.3,0-0.6-0.1-0.8c-0.3-0.7-0.5-1.4-0.6-2.1c-0.2,0.3-0.5,0.4-0.8,0.4c-0.2,0-0.3,0-0.4-0.1
	c-0.4-0.2-0.6-0.5-0.8-0.8c-0.2-0.6-0.3-1.3-0.1-1.9c0-0.2,0.1-0.3,0.3-0.5c-0.1-0.1-0.2-0.1-0.3-0.2c-0.2-0.2-0.4-0.4-0.4-0.9
	c0-0.3,0.1-0.5,0.1-0.8s0.4-0.8,1-0.8c0,0,0.1,0,0.2,0c0.2,0.1,0.6,0.2,0.8,0.5c0-0.4,0-0.7,0-1.1v-0.2c0-0.4,0-0.7,0-1.1
	c0-0.3-0.1-0.5-0.1-0.7c-0.2-1.3-0.3-2.5-0.2-3.8c-0.2-0.7-0.1-1.4,0-1.8c0-0.3,0.1-0.5,0.1-0.6c0-0.3,0-0.6,0-0.9
	c0-0.5,0-1,0.1-1.4c0.1-0.7,0.1-1.1-0.2-1.4c-0.5-0.7-0.5-2.8-0.3-3.4c0.2-0.4,0.1-0.8,0.1-1.3v-0.1c0-0.3,0-0.7,0-1s0-0.5,0-0.7
	c0-0.8,0-1.6,0.7-2.4c-0.5-0.8-0.2-1.5-0.1-2l0.1-0.2c0.3-1,0.3-1.7,0.2-2.5c-0.1-0.4-0.3-1.6,0.8-2.5c-0.4-0.8-0.5-1.3-0.9-1.1
	c-0.1,0-0.2,0.1-0.3,0.1c-0.1,0.3-0.2,0.7-0.7,0.9c-0.2,0.1-0.3,0.1-0.4,0.1c-0.4,0-0.7-0.2-1-0.5c0,0.2-0.1,0.4-0.2,0.6
	c-0.3,0.6-0.6,1.1-0.8,1.6c0.2,0.2,0.4,0.4,0.4,0.7c0.1,0.3-0.1,0.7-0.4,0.9c0,0.2-0.1,0.4-0.3,0.6c-0.2,0.3-0.5,0.4-0.8,0.4
	c-0.5,0-0.9-0.3-1-0.7c0-0.1,0-0.2-0.1-0.2c-0.1-0.3-0.4-1,0-1.6c0.1-0.1,0-0.4,0-0.6c-0.1-0.8,0.1-1.4,0.2-1.9l0.1-0.5
	c0.1-0.8,1.3-1.4,1.2-1.6c-0.4-0.5-0.3-1.1-0.2-1.6c0-0.1,0-0.1,0-0.2c0-0.3,0.1-0.8,0.5-1.2l0,0c-0.1-0.7,0.2-1.2,0.3-1.5l0.1-0.2
	c0.2-0.4,0.6-0.6,1-0.6c0.6,0.1,0.9,0.5,1,0.9c0,0.2,0,0.4,0,0.6v0.3c0.1,0.2,0,0.6-0.1,0.9c-0.1,0.4-0.2,0.7-0.1,0.9
	c0.1,0.4,0,0.8-0.4,1.2c-0.1,0.3-1.1,1.1-0.9,1.1c0.2,0.1,0.4,0.3,0.5,0.4c0.1-0.1,0.1-0.2,0.2-0.3c0.2-0.3,0.6-0.4,0.9-0.4
	c0.1,0,0.1,0,0.2,0c0.2-0.4,0.6-0.6,0.9-0.6l0,0c0.7,0,0.9,0.5,1,0.7c0,0,0.2,0.1,0.2,0c0-0.7,0.5-1,0.7-1.2
	c0.1-0.1,0.1-0.1,0.2-0.1l0.1-0.1c0,0,0,0,0-0.1c-0.5-0.9-0.3-1.7-0.2-2.1l0.2-0.9c0.2-0.8,0.4-1.6,0.6-2.5c0.1-0.3,0.2-0.6,0.4-0.9
	c0.2-0.5,0.4-1,0.5-1.4c0-0.2,0.1-0.4,0.1-0.5c0-0.2,0.1-0.3,0.1-0.5c0.2-1.1,0.4-1.6,1.1-2.5c0-0.1,0.1-0.1,0.1-0.3
	c0-0.4,0.1-0.9,0.2-1.4c0.1-0.3,0.3-0.7,0.6-0.9l0,0c-0.1-0.2-0.4-0.8-0.1-1.4c0.2-0.5,0.7-0.8,1.1-0.9c0.1,0,0.3-0.1,0.4-0.1h0.2
	c0.1,0,0.3,0,0.4,0.1c0.3,0.1,0.4,0.3,0.5,0.6c0.1,1.1-0.4,1.5-0.7,1.7c0,0.1-0.1,0.1-0.1,0.1c0.1,0.2,0.2,0.4,0.1,0.7l-0.4,1.7
	c-0.2,1-0.4,1.9-0.6,2.9c-0.2,1.1-0.4,2.2-0.6,3.3l-0.2,1.3c0,0.2-0.1,0.5,0,0.6c0.3,0.7,0.3,1.4-0.1,1.9c0.1,0.3,0.1,0.5,0.1,0.8
	c-0.1,0.4-0.4,0.7-0.8,0.9c0,0.1,0,0.1,0,0.2c0.1,0,0.2,0.1,0.3,0.1c0.1,0.1,0.5,0.3,0.5,0.8c0.1,1,0.2,2,0.3,3.1l0.1,0.7
	c0,0.5,0,1.2-0.3,1.7c0,0.1,0,0.3,0,0.5c0,0.5,0,0.9,0,1.3c0,1.1,0.1,2,0.1,3c0.1,0.7,0,1.4-0.1,2.1c0,0.1,0,0.1,0,0.2
	c0,0.3-0.1,0.4,0,0.6c0.1,0.4,0.1,1-0.5,1.4c0,0,0,0.1,0,0.2c0.1,0.4,0.1,1,0.2,1.5v0.5c0.1,0.7,0.1,1.5,0.2,2
	c0.1,0.4,0.1,0.8,0,1.2c0.2,0.2,0.4,0.5,0.5,0.8c0,0.4-0.1,0.7-0.3,1c-0.2,0.2-0.1,0.4,0.1,1.1l0.1,0.4c0.3,0.8,0.2,1.2-0.2,1.6
	c0.4,0.5,0.3,1.2,0.3,1.4c0,0.1,0,0.3,0,0.4v0.2c0,0.2,0,0.3,0,0.5c0.3,0.1,0.5,0.3,0.7,0.5c0.2,0.4,0.1,0.8,0,0.9
	c0,0-0.1,0.1-0.1,0.2c-0.1,0.4-0.6,0.7-0.8,0.8c-0.1,0.4-0.1,0.7-0.4,1.1l0,0c0,0,0,0.1,0,0.2c0,0.1,0,0.1,0,0.2c0.1,0,0.1,0,0.2,0
	c0.1,0,0.1,0,0.2,0c0.6,0,1.1,0.4,1.2,0.9c0.1,0.6,0.3,1.2,0.3,1.8c0.1,0.4-0.1,0.9-0.6,1.2c0.9,0.1,0.9,1,0.9,1.5
	c0,0.2,0,0.4,0,0.6v0.2c0,0.3-0.1,0.8-0.5,1.2l-0.1,0.1c-0.1,0.1-0.3,0.2-0.5,0.2l0,0c-0.1,0.5-0.2,1.1-0.4,1.6s-0.1,1,0.3,1.2
	c0.2,0.2,0.3,0.3,0.4,0.5c0.1,0.1,0.2,0.2,0.2,0.2c0.5,0.3,0.9,0.8,1,1.4c0.1,0.6,0.2,1.1,0.4,1.5c0.3,0.8,0.3,1.6-0.1,2.4
	c0.4,0.3,0.7,0.7,0.7,1.2c0,0.2,0.1,0.4,0.1,0.4c0.5,0.2,0.7,0.9,0.5,1.4c0.4,0.2,0.8,0.6,0.9,1.3c0,0.1,0.1,0.3,0.2,0.4
	c0.4,0.1,0.8,0.3,0.9,0.7c0,0,0,0.1,0.1,0.1c0.1,0.3,0.2,0.6,0.2,1.1c0.3,0.2,0.5,0.5,0.5,0.8c0,0.2,0.1,0.7-0.2,1.1
	c0.1,0.1,0.1,0.2,0.2,0.3c0.3,0.5,0.4,1,0.5,1.4c0.1,0.3,0.1,0.5,0.2,0.8c0,0,0.1,0.1,0.2,0.2c0.2,0.2,0.5,0.6,0.5,1.2
	c0,0.1,0,0.1,0,0.2c0,0.1,0,0.3,0,0.6c-0.1,0.3-0.2,0.8-0.9,1l0,0c-0.1,0-0.1,0.1-0.1,0.3c-0.1,0.3-0.1,0.6-0.1,0.9
	c0.1,0,0.1,0,0.2,0c0.3,0,0.5,0.1,0.7,0.3c0.3,0.3,0.4,0.8,0.3,1.1c0,0.2-0.1,0.4-0.1,0.5c0.6,0.1,0.9,0.4,1,1.2c0,0.1,0,0.2,0,0.2
	c0.1,0.2,0.1,0.5,0.1,0.7c0,0.3,0.1,0.4,0.2,0.4c0.2,0.1,0.5,0.5,0.6,1c0.2,1,0.7,1.7,1.1,2.5c0.2,0.3,0.2,0.6,0.3,0.9
	c0.2-0.1,0.4-0.2,0.6-0.2h0.2c0.5,0.1,1,0.7,1,1.2v0.1C198.9,267.2,198.9,268.2,197.7,268.5z M192.4,246.9c0-0.7,0.5-1,0.9-1.1
	c0,0,0.1,0,0.2,0c0.4,0,0.6,0.2,0.7,0.2c0.6,0.4,0.9,1,0.8,1.6c0,0.4-0.3,0.8-0.6,0.9c-0.1,0.1-0.3,0.1-0.5,0.1s-0.4,0-0.5-0.1
	C192.9,248.4,192.3,247.9,192.4,246.9z M197.2,243.7c0.1-0.6,0.6-1,1.2-1c0.1,0,0.2,0,0.2,0c0.6,0.2,1,0.7,1,1.4
	c0,0.6-0.6,1.2-1.2,1.2c-0.2,0-0.4,0-0.5-0.1C197.4,244.9,197.1,244.4,197.2,243.7z M207.5,261.1c-0.2,0.1-0.3,0.1-0.5,0.1
	c-0.5,0-0.9-0.3-1.1-0.7c-0.3-0.6-0.1-1.3,0.5-1.5c0.1-0.1,0.4-0.4,0.6-0.5c-0.2-0.2-0.3-0.4-0.4-0.6c-0.2,0.1-0.4,0.2-0.6,0.2
	c-0.5,0-0.8-0.2-1-0.4c-0.7-0.5-1-1.1-0.9-1.8c-1.4-1-1.8-2.4-2.3-3.7c0-0.1-0.1-0.2-0.1-0.3c-0.1,0.2-0.3,0.4-0.7,0.5
	c-0.1,0-0.3,0.1-0.4,0.1c-0.3,0-0.5-0.1-0.7-0.2c-0.3-0.2-0.4-0.5-0.6-0.8c-0.1,0-0.2,0.1-0.4,0.1c-0.1,0-0.2,0-0.3,0
	c-0.3-0.1-0.5-0.2-0.6-0.5c-0.2-0.3-0.2-0.6-0.1-0.9c0.1-0.5,0.6-0.9,1.1-0.9h0.1v-0.1c0.1-0.1,0.2-0.3,0.4-0.4
	c-0.3-0.2-0.5-0.5-0.7-0.7c-0.6-1-0.2-1.6,0.2-2l0.2-0.2c0.2-0.2,0.6-0.6,1.1-0.6c0,0,0-0.1,0.1-0.1c0.1-0.1,0.2-0.2,0.3-0.3
	c-0.2-0.3-0.9-1.7-1-2.1c0-0.1-0.2-0.2-0.3-0.3l-0.3-0.2c-1.1-0.9-1.6-2-1.7-3.7c0-0.2,0-0.4,0.1-0.6c-0.1-0.1-0.1-0.1-0.2-0.2
	c0-0.1-0.1-0.1-0.1-0.2c-0.1,0.4-0.5,0.7-1,0.7c-0.1,0-0.3,0-0.4-0.1c-0.6-0.2-1-0.7-1.2-1.4c-0.1-0.3,0-0.7,0.2-1
	c0-0.1,0.1-0.1,0.1-0.2c-0.4-0.1-0.9-0.3-1-0.8c-0.1-0.3-0.1-0.7-0.1-1.1v-0.4c0-0.5,0-0.8-0.1-1c-0.1-0.2-0.2-0.5-0.1-0.7
	c-0.3-0.3-0.5-0.6-0.5-1.1c0,0,0-0.1,0-0.2s0-0.3,0-0.4c-0.1,0.2-0.3,0.3-0.5,0.4c-0.1,0-0.2,0-0.3,0c-0.4,0-0.9-0.2-1.1-0.6
	c-0.7-1.4-0.9-2.8-0.7-4.5c0-0.2,0.1-0.6,0.7-0.8l0,0c0.1,0,0.7-0.4,0.6-0.4c-0.9-0.1-1.4-0.6-1.6-1.4c-0.1-0.7-0.1-1.2,0.2-1.6
	c0.2-0.4,0.6-0.5,0.8-0.6l0,0c0-0.1,0-0.2,0.1-0.3c0-0.1,0-0.2,0-0.3c-0.1,0-0.3,0.1-0.4,0.1c-0.5,0-1.1-0.3-1.2-1.3
	c0-0.2,0-0.4,0-0.6c0-0.6,0.4-1,0.8-1.1c0-0.1,0-0.2-0.1-0.2l-0.1-0.3c-0.1-0.6-0.4-1.4,0.4-2.4c0,0,0-0.2-0.2-0.4l-0.1-0.1
	c-0.2-0.2-0.6-0.5-0.7-1.1c-0.1-0.6-0.2-2.4-0.2-3.1c0-0.9-0.1-1.7-0.2-2.5c-0.1-0.6-0.1-1.2-0.1-1.6c0-0.6,0-1.2-0.1-1.7
	c-0.1-0.4-0.1-0.9-0.1-1.3v-0.3c0-0.6-0.1-1.4-0.3-2c-0.1-0.7-0.2-1.4-0.2-2.2c0-0.2,0-1,0-1c0-0.1,0-0.3,0-0.4
	c-0.4-0.5-0.5-1.1-0.3-1.8c0-0.2,0-0.3,0.1-0.5c0-0.5,0.1-1,0.3-1.5c-0.1-0.5-0.2-0.9-0.2-1.3c0-0.2,0-0.4-0.1-0.5
	c-0.2-0.6-0.1-1.3,0-1.7c0-0.5,0.1-0.8,0-1.2c0-0.1-0.1-0.3,0-0.5c0.2-0.5,0.2-1.1,0.3-1.6c0-0.3,0.1-0.5,0.1-0.8
	c0.1-0.4,0.1-0.8,0-1.1c0-0.1,0-0.3,0-0.4c0.2-0.7,0.3-1.4,0.3-2v-0.2c0.1-0.8,0.1-1.5,0.4-2.2c0.2-0.6,0.3-1.2,0.3-1.8
	c0-0.3,0.1-0.5,0.1-0.7c0.3-2.2,0.6-4.1,0.8-5.8c0.1-0.5,0.2-0.9,0.3-1.4c0.1-0.2,0.1-0.4,0.2-0.6c0.1-0.4,0.2-0.7,0.3-1.1
	c0.3-0.9,0.5-1.5,0.5-2.3c0-0.1,0-0.1,0-0.2c0-0.1,0.1-0.2,0.1-0.2c0.3-0.5,0.4-1,0.6-1.6c0.1-0.5,0.2-1,0.4-1.4l0.1-0.2
	c0.1-0.3,0.2-0.5,0.2-0.7c0-0.4,0.1-0.7,0.3-1c0.3-0.3,0.4-0.7,0.5-1.4c0,0,0.1-0.5,0.1-0.6c0.1-0.3,0.2-0.7,0.4-1.1
	c0.4-0.8,0.8-1.6,1.2-2.5l0.3-0.7c0.2-0.5,0.5-0.9,0.7-1.3c0.1-0.2,0.2-0.3,0.3-0.5c0.2-0.3,0.9-0.6,0.8-0.7c-0.2-0.3-0.2-0.7,0-1.1
	c0,0,0.6-1.1,0.7-1.4c0.2-0.4,0.6-0.7,1.1-0.8c0,0,0,0,0.1,0c-0.1-0.1-0.1-0.1-0.1-0.2c-0.3-0.7,0.2-1.4,0.5-1.7
	c0.2-0.3,0.4-0.5,0.6-0.8c0.2-0.2,0.3-0.4,0.2-0.4c-0.3-0.1-0.8-0.4-0.6-1.4c0.2-0.6,0.1-0.7,0-0.9c-0.2-0.3-0.3-0.7-0.1-1.1
	c0.2-0.3,0.5-0.5,0.9-0.5h0.2c0.4,0.1,0.8,0.2,1.2,0.3h0.1c0.2,0,0.6,0.1,0.8,0.4c0.1,0.2,0.3,0.5,0.3,0.9c0,0.3-0.2,0.9-1.1,1.1
	c0,0.3-0.1,0.6-0.4,0.9c-0.1,0.1,0.3,0.7,0.4,0.9c0.1,0.2,0.4,0.6,0.3,1.1c0,0.1-0.1,0.3-0.1,0.4v0.4c0,0.3,0,0.5-0.1,0.7
	c-0.1,0.5-0.6,1-1.1,1l0,0c-0.2,0-0.4,0-0.5-0.1c-0.1,0-0.2,0-0.3,0c0.1,0.3,0.1,0.6,0,0.8c-0.2,0.5-0.5,1.1-0.8,1.5
	c-0.2,0.3-0.5,0.7-1.3,0.7c0,0,0,0.5,0,0.8c0,0.5-0.2,1-0.3,1.4c-0.1,0.2-0.1,0.4-0.2,0.6c0,0.1-0.1,0.2-0.1,0.3
	c0.2,0.1,0.3,0.3,0.4,0.3c0.3,0.4,0.3,0.9,0.1,1.3s-0.5,0.7-1,0.7c0.3,0.8,0.1,1.6-0.1,2.1c0,0.1-0.1,0.3-0.1,0.4
	c-0.2,0.7-0.4,1.4-0.2,2.1c0.1,0.4,0.2,1.2-0.3,1.7c0,0.7-0.4,1.3-1,1.7c0.2,0.3,0.3,0.5,0.3,0.9c0.1,0.6,0,1.1-0.3,1.6
	c0,0,0,0.1-0.1,0.1c0.1,0.2,0.2,0.4,0.3,0.6c0.1,0.1,0.2,0.2,0.3,0.3c0.2,0.2,0.3,0.6,0,1.2c-0.3,0.7-0.2,1.5,0.3,2.2
	c0.1,0.2,0.4,0.5,0.3,1c0,0.2-0.1,0.3-0.2,0.5c0.2,0.2,0.3,0.5,0.3,0.9c0,1-0.7,1.3-1.2,1.3H196c0,0.2-0.1,0.4-0.1,0.7v0.1
	c-0.2,0.7-0.3,1.2,0,1.6c0.5,0.9,0.1,1.8-0.2,2.4c-0.1,0.3-0.1,0.6-0.2,1c0,0,0,0.4,0,0.5c0.7,1,0.3,1.9,0,2.4
	c-0.2,0.5-0.3,1.1-0.3,1.6c0,0.3,0,0.6-0.1,0.9c-0.1,0.5-0.2,0.9-0.4,1.3c-0.1,0.3-0.2,0.6-0.3,0.8c-0.1,0.3-0.3,0.5-0.5,0.6
	c0,0.1,0,0.1,0.1,0.2c0.2-0.3,0.5-0.5,0.8-0.5c0,0,0.1,0,0.2,0c0.2,0,0.4,0.2,0.6,0.4c0.4,0.5,0.3,1,0.3,1.2c0.1,0.2,0.3,0.7,0,1.1
	c-0.1,0.1-0.2,0.3-0.4,0.4c0.4,0.2,0.9,0.7,0.8,1.6c0,0,0,0.1,0,0.2c0,0.1-0.1,0.3-0.1,0.4c-0.1,0.3-0.4,0.6-0.9,0.7c0,0,0,0-0.1,0
	l0,0c-0.2,0-0.3-0.1-0.5-0.1l0,0c-0.1,0.4-0.1,0.7,0.4,1.4c0.3,0.3,0.3,0.7,0.2,1c0,0.1,0,0.2,0,0.3c0.2,0.5,0.5,0.6,0.5,0.6
	c0.3-0.7,1.1-1,1.6-1c0.5,0,1,0.2,1.2,0.7c0.1,0.2,0.2,0.6,0.2,0.9c0,0.4,0,0.9,0,1.2v0.3c0,0.2,0,0.5,0,0.7c0,0.9,0.1,1.7-0.5,2.3
	c-0.4,0.4-0.8,0.5-1,0.5c-0.2,0-0.3,0-0.4-0.1c0.1,0.1,0.3,0.2,0.3,0.3c0.3,0.3,0.4,0.6,0.5,0.9l0.2,0.4c0.1,0.3,0.2,0.4,0.3,0.5
	c0.4,0.2,0.6,0.6,0.7,1c0,0.4-0.1,0.7-0.3,1.1c0.1,0.2,0.1,0.4,0,0.6c0.1,0.3,0.1,0.5,0,0.7c-0.1,0.4-0.5,0.7-1,0.8
	c-0.2,0-0.4,0.1-0.5,0.1c-0.2,0-0.3,0-0.5-0.1c-0.1,0.4-0.1,1.4,0,1.6c0,0,0.1,0.1,0.1,0.2c0.2,0.5,0,1-0.1,1.3l0,0
	c0.2,0.2,0.5,0.5,0.7,1c0.2,0.5,0,1-0.4,1.4c-0.1,0-0.1,0.1-0.1,0.1c0.3,0.3,0.4,0.7,0.4,0.9c0,0,0,0.1,0.3,0.3
	c0.6,0.6,0.5,1.4,0.4,1.6c0,0.2-0.1,0.4-0.1,0.6c0,0.4-0.1,0.8-0.2,1.2c0.3,0.4,0.5,0.7,0.6,1.1c0.2,0.4,0.3,0.6,0.4,0.8
	c0.2,0.2,0.4,0.6,0.2,1.2l-0.1,0.3c-0.1,0.3-0.1,0.5,0,0.6c0.2,0.4,0.1,1,0,1.3c-0.1,0.4-0.2,0.8,0.4,1.5c0.3,0.4,0.4,0.7,0.4,1.1
	c0.5,0.2,0.8,0.7,0.8,1.2c0,0.3,0.1,0.5,0.3,0.9c0.2,0.4,0.3,0.7,0.3,1c0,0.1,0.1,0.3,0.1,0.4c0.1,0.4,0.3,0.8,0.3,1.3
	c0,0,0,0.1,0.1,0.1l0.8,2.4c0.5,1.4,1,2.9,1.4,4.3c0.4,1.4,1,2.9,1.7,4.3c0.2,0.3,0.3,0.7,0.3,1c0.1,0.4,0.2,0.8,0.4,1.2
	c0.1,0.4,0.2,0.7,0.3,0.9c0.5,1.6,1.1,2.9,1.6,4.1c0.2,0.3,0.3,0.6,0.4,1c0.1,0.8,0.5,1.5,0.9,2.3c0.2,0.4,0.4,0.8,0.6,1.2
	c1.2,1.5,0.7,3.1,0.3,4.1c-0.2,0.4-0.6,0.8-1.1,0.8c-0.2,0-0.3,0-0.5-0.1c-0.1,0-0.3,0.1-0.7,0.4C207.7,261,207.6,261.1,207.5,261.1
	z M199.6,167.4c0.3,0,0.5,0.1,0.7,0.3c0.3,0.3,0.7,0.8,0.5,1.7c0,0.2-0.1,0.3-0.1,0.5l-0.1,0.3c-0.2,0.9-0.8,1-1.1,1
	c-0.1,0-0.2,0-0.3,0c-0.3-0.1-0.8-0.3-0.9-1.2c0-0.1,0-0.2,0-0.3v-0.3V169C198.4,168.1,198.8,167.4,199.6,167.4z M199,162.6
	c0.1-0.3,0.2-0.8,0.2-1.2c0.1-0.7,0.2-1.4,0.6-2.1c0.2-0.4,0.4-0.8,0.4-1.2c0-0.6,0.5-1.1,1.2-1.1h0.2c0.7,0.1,1.1,0.7,0.9,1.4v0.2
	c0,0.2-0.1,0.6-0.3,0.9c-0.2,0.4-0.3,0.8-0.4,1.3c0,0.3-0.1,0.5-0.1,0.7c-0.2,0.7-0.3,1.3-0.5,1.9c-0.1,0.4-0.5,0.6-0.6,0.6
	l-0.2,0.1c0,0-0.2,0-0.3,0c-0.4,0-0.9-0.3-1.1-0.6C198.9,163.2,198.8,162.9,199,162.6z M200,220.5c0.1-0.4,0.3-0.8,0.6-1
	c0,0,0,0,0-0.1c-0.1-0.2,0-0.4,0-0.6c0-0.7,0.4-1.1,1-1.2l0,0c0.6,0,1,0.3,1.2,0.8c0.1,0.1,0.1,0.3,0.1,0.4v0.2
	c0.1,0.6,0.2,1.1,0.4,1.4c0.1,0.2,0.2,0.5,0.2,0.7c0,0.1,0,0.2,0,0.3c0,0.3-0.1,1.3-1.2,1.4h-0.1c-0.2,0.2-0.5,0.2-0.7,0.2
	c-0.5,0-0.9-0.3-1.1-0.7C200.2,221.9,199.9,221.2,200,220.5z M211.7,265.4c-0.2,0.2-0.3,0.3-0.5,0.5c-0.1,0.1-0.1,0.1-0.2,0.2
	l-0.1,0.1c-0.1,0.1-0.3,0.2-0.5,0.2c-0.2,0-0.3-0.1-0.4-0.2l-0.1-0.1l-0.1-0.1c-0.2-0.1-0.5-0.3-0.6-0.8c-0.1-0.4-0.1-0.8,0.1-1.1
	c-0.7-0.1-1.2-0.6-1.3-1.4c0-0.1,0-0.1,0-0.2c0.1-0.7,0.7-1.1,1.4-1.1c0.5,0,0.8,0.2,1.1,0.5c0.2,0.3,0.4,0.6,0.3,1
	c0,0.2-0.1,0.3-0.1,0.4c0.2,0,0.4,0.1,0.6,0.2c0.4,0.2,0.6,0.5,0.6,0.8C212.2,264.9,211.9,265.2,211.7,265.4z M252.3,298.2l-0.2,0.1
	c-0.2,0.1-0.4,0.1-0.6,0.1c-0.8,0-1.4-0.7-2.2-1.4l-0.1-0.1c-0.3-0.3-0.6-0.6-0.9-0.8l-0.5-0.4c-0.3-0.3-0.7-0.5-1-0.8l-1.3-1.2
	l-0.9-0.9c-0.7-0.6-1.3-1.2-1.9-1.8l-2.7-2.9c-0.2-0.2-0.4-0.4-0.5-0.5c-0.3-0.3-0.5-0.5-0.8-0.8c-0.2-0.3-0.4-0.6-0.6-0.9l-0.1-0.1
	c-0.2-0.3-0.5-0.7-0.7-1c-0.4-0.5-0.8-0.9-1.2-1.2c-0.5-0.4-1-0.9-1.4-1.5c-0.3-0.5-0.7-1-1.1-1.5l-0.2-0.3c-2.7-4-3.5-5.3-3.2-6.2
	c0.1-0.3,0.3-0.5,0.6-0.7l0.2-0.1c0.1,0,0.2,0,0.2,0c0.2,0,0.4,0.1,0.5,0.3l1.3,1.6c0,0,0.3,0.4,0.4,0.5l3,3.7
	c0.5,0.7,1,1.3,1.5,1.7c0.4,0.4,0.7,0.8,1,1.1c0.4,0.5,1.6,1.9,1.6,1.9c0.3,0.3,0.6,0.7,0.9,1c0.9,1,1.8,1.7,2.9,2.7
	c0.9,0.8,1.7,1.6,2.7,2.5c0.3,0.4,0.6,0.9,0.8,1.3c0.1,0.3,0.3,0.7,0.4,0.8c0,0,0.6,0.7,0.7,0.8c0.1,0.1,0.2,0.3,0.4,0.4l0.3,0.3
	c1.2,1.2,2,2.1,2.9,3.1l0.1,0.1c0.1,0.2,0.2,0.4,0.2,0.6C252.6,297.9,252.5,298.1,252.3,298.2z M278.8,331.1
	c-0.2,0.3-0.5,0.5-0.9,0.5c-0.3,0-0.5,0.1-0.8,0.1c-0.1,0-0.2,0-0.3,0s-0.3-0.1-0.4-0.1c-0.2,0.4-0.5,0.8-1,0.9
	c-0.7,0.1-1.3,0.2-1.9,0.2l0,0l0,0c-0.6,0-1-0.5-1-0.6c-0.2-0.3-0.2-0.7-0.2-0.9c0.3-0.8,0.7-1.2,1.1-1.3c0.3,0,0.6-0.1,0.9-0.1
	c0.2,0,0.4,0,0.6,0c0.2,0,0.3,0,0.5,0c0.1,0,0.3,0,0.4,0.1c0.1-0.3,0.3-0.5,0.6-0.6c0.4-0.2,0.7-0.3,1.1-0.3c0.2,0,0.5,0,0.7,0.1
	c0.1,0,0.2,0.1,0.3,0.2l0.1,0.1c0.2,0.2,0.3,0.3,0.4,0.6C279,330.4,279,330.8,278.8,331.1z M286.5,330.5c-0.5,0.7-2.3,0.7-2.7,0.7
	h-0.2c-0.1,0-0.1,0-0.2,0c-0.2,0-0.3-0.1-0.5-0.1c-0.6-0.1-1-0.2-1.3-0.5c-0.3-0.3-0.4-0.7-0.2-1.1c0.4-0.9,1.7-1,2.6-1
	c0.3,0,0.6,0,0.9,0.1c0.5,0.1,1.4,0.4,1.6,1.1C286.7,329.9,286.6,330.3,286.5,330.5z"/>
</svg>
